<svg width="101" height="100" viewBox="0 0 101 100" fill="none" xmlns="http://www.w3.org/2000/svg">
<path d="M39.6839 81.374C20.8339 81.374 5.5 66.0387 5.5 47.187C5.5 28.3353 20.8339 13 39.6839 13C58.5339 13 73.8678 28.3353 73.8678 47.187C73.8678 50.8865 73.2818 54.5128 72.122 57.9925C71.9144 58.6274 71.2185 58.9693 70.5837 58.7617C69.9488 58.5542 69.5948 57.8582 69.8145 57.2233C70.8889 54 71.4382 50.6179 71.4382 47.187C71.4382 29.6784 57.2031 15.4419 39.6961 15.4419C22.189 15.4419 7.95389 29.6784 7.95389 47.187C7.95389 64.6956 22.189 78.9321 39.6961 78.9321C45.9957 78.9321 52.0755 77.0884 57.2886 73.6087C57.8502 73.2301 58.6071 73.3889 58.9856 73.9505C59.364 74.5122 59.2053 75.2692 58.6437 75.6477C53.0278 79.396 46.4718 81.3862 39.6839 81.3862V81.374Z" fill="white"/>
<path d="M59.6448 35.6735C59.0954 35.6735 58.6071 35.3072 58.4606 34.7578C57.8135 32.2304 55.5305 30.4722 52.9179 30.4722C50.3053 30.4722 48.0345 32.2304 47.3752 34.7578C47.2043 35.4049 46.5328 35.8078 45.8858 35.6369C45.2387 35.4659 44.8358 34.8066 45.0068 34.1473C45.9346 30.5455 49.1821 28.0425 52.9057 28.0425C56.6293 28.0425 59.8768 30.5576 60.8046 34.1595C60.9755 34.8066 60.5848 35.4781 59.9256 35.6491C59.8279 35.6735 59.718 35.6857 59.6204 35.6857L59.6448 35.6735Z" fill="white"/>
<path d="M33.1645 35.6735C32.6152 35.6735 32.1268 35.3072 31.9803 34.7578C31.3333 32.2304 29.0503 30.4722 26.4376 30.4722C23.825 30.4722 21.5542 32.2304 20.8949 34.7578C20.724 35.4049 20.0526 35.8078 19.4055 35.6369C18.7584 35.4659 18.3556 34.8066 18.5265 34.1473C19.4543 30.5455 22.7018 28.0425 26.4254 28.0425C30.149 28.0425 33.3965 30.5576 34.3243 34.1595C34.4952 34.8066 34.1046 35.4781 33.4453 35.6491C33.3476 35.6735 33.2378 35.6857 33.1401 35.6857L33.1645 35.6735Z" fill="white"/>
<path d="M39.6839 72.6928C29.2822 72.6928 20.8217 64.2315 20.8217 53.8289C20.8217 53.1573 21.3711 52.6079 22.0425 52.6079H57.3252C57.9966 52.6079 58.546 53.1573 58.546 53.8289C58.546 64.2315 50.0855 72.6928 39.6839 72.6928ZM23.3122 55.0498C23.9349 63.5355 31.0402 70.2508 39.6839 70.2508C48.3275 70.2508 55.4329 63.5355 56.0555 55.0498H23.3122Z" fill="white"/>
<path d="M78.0919 87.0027C77.5059 87.0027 76.9565 86.6731 76.6879 86.1359C74.6735 82.3387 71.133 80.4584 68.789 79.213C68.0931 78.8345 67.4827 78.517 67.031 78.1996C63.7957 76.1606 62.2452 73.2791 61.5005 71.8994L61.4272 71.7773C60.4384 69.5796 60.1087 67.4307 60.4017 65.1353C60.4017 65.1231 60.4017 65.1108 60.4017 65.0986C61.0488 60.9351 64.5649 58.1636 66.6281 57.4066C69.7779 56.2467 72.5492 56.2223 74.8444 57.3455C76.2362 58.0171 77.2251 59.006 77.8965 59.9218C78.5314 59.006 79.4593 58.0171 80.8144 57.3089C83.073 56.1368 85.8321 56.1001 89.0063 57.2234C91.0818 57.9438 94.6344 60.6543 95.367 64.8056C95.6966 67.1377 95.4158 69.2866 94.5002 71.4233L94.4025 71.6186C93.6822 73.0105 92.1805 75.9164 88.9331 78.0531C88.5424 78.3461 87.9442 78.6758 87.2483 79.0543C84.9531 80.3363 81.4737 82.2654 79.5081 86.087C79.3005 86.5998 78.8122 86.9539 78.2506 87.0027C78.2018 87.0027 78.1529 87.0027 78.1041 87.0027H78.0919ZM78.8488 84.9882C78.8488 84.9882 78.8488 85.0003 78.861 85.0126C78.861 85.0126 78.861 84.9882 78.8488 84.9882ZM62.819 65.4527C62.587 67.3086 62.8434 68.9691 63.6126 70.6907L63.6492 70.7395C64.2963 71.9361 65.6392 74.4268 68.3861 76.1606C68.7646 76.417 69.314 76.71 69.9366 77.0519C72.1341 78.224 75.6502 80.0921 78.0675 83.6817C80.4237 80.0432 83.8909 78.1141 86.0518 76.9054C86.6745 76.5635 87.2117 76.2583 87.5291 76.0263C90.3004 74.2193 91.5945 71.6918 92.2172 70.4831L92.2782 70.361C92.9863 68.7127 93.2061 67.04 92.9375 65.1719C92.327 61.6433 89.0307 59.8119 88.1883 59.5189C85.6734 58.6398 83.5613 58.6153 81.9254 59.47C79.8011 60.5689 79.1052 62.8276 79.1052 62.8521C78.9587 63.3649 78.4948 63.7312 77.9576 63.7434C77.3716 63.719 76.9443 63.4137 76.7734 62.9009C76.7734 62.8887 75.9798 60.6055 73.7579 59.531C72.0853 58.7252 69.961 58.7863 67.4827 59.702C66.6403 60.0072 63.3928 61.8997 62.8312 65.4649L62.819 65.4527Z" fill="#54A9F7"/>
</svg>
