<svg width="101" height="100" viewBox="0 0 101 100" fill="none" xmlns="http://www.w3.org/2000/svg">
<g clip-path="url(#clip0_198_138059)">
<path d="M92.4583 84.5337H16.9839C12.2816 84.5337 8.45471 80.7065 8.45471 76.0037V73.2771H101V76.0037C101 80.7065 97.1731 84.5337 92.4708 84.5337H92.4583ZM10.9434 75.7786V76.0037C10.9434 79.3307 13.6448 82.0322 16.9714 82.0322H92.4458C95.7724 82.0322 98.4738 79.3307 98.4738 76.0037V75.7786H10.9309H10.9434Z" fill="white"/>
<path d="M90.9825 75.7787C90.2947 75.7787 89.7319 75.2159 89.7319 74.528V30.7522C89.7319 30.0643 89.1692 29.5015 88.4813 29.5015H20.8732C20.1854 29.5015 19.6226 30.0643 19.6226 30.7522V52.0147C19.6226 52.7026 19.0598 53.2654 18.372 53.2654C17.6842 53.2654 17.1214 52.7026 17.1214 52.0147V30.7522C17.1214 28.6885 18.8097 27 20.8732 27H88.4813C90.5448 27 92.2332 28.6885 92.2332 30.7522V74.528C92.2332 75.2159 91.6704 75.7787 90.9825 75.7787Z" fill="white"/>
<path d="M18.372 75.7788C17.6842 75.7788 17.1214 75.2159 17.1214 74.528V64.2095C17.1214 63.5216 17.6842 62.9587 18.372 62.9587C19.0598 62.9587 19.6226 63.5216 19.6226 64.2095V74.528C19.6226 75.2159 19.0598 75.7788 18.372 75.7788Z" fill="white"/>
<path d="M85.9801 70.7757C85.2923 70.7757 84.7295 70.2129 84.7295 69.525V34.5044H24.7002V37.0059C24.7002 37.6938 24.1374 38.2566 23.4496 38.2566C22.7617 38.2566 22.1989 37.6938 22.1989 37.0059V33.2537C22.1989 32.5658 22.7617 32.0029 23.4496 32.0029H85.9801C86.668 32.0029 87.2308 32.5658 87.2308 33.2537V69.525C87.2308 70.2129 86.668 70.7757 85.9801 70.7757Z" fill="white"/>
<path d="M23.3745 70.7759C22.6867 70.7759 22.1239 70.2131 22.1239 69.5252V58.2686C22.1239 57.5807 22.6867 57.0178 23.3745 57.0178C24.0624 57.0178 24.6252 57.5807 24.6252 58.2686V69.5252C24.6252 70.2131 24.0624 70.7759 23.3745 70.7759Z" fill="white"/>
<path d="M26.7262 59.519C26.1009 59.519 25.5506 59.0438 25.4881 58.4059C25.413 57.718 25.9133 57.1051 26.6011 57.0301C28.502 56.83 29.6526 54.9164 30.503 53.5155C30.8657 52.9152 31.1408 52.4524 31.4785 52.1147C33.9047 49.4756 36.1433 50.7264 37.1062 51.2517C37.1938 51.3017 37.2688 51.3392 37.3439 51.3893C37.9066 51.1266 39.745 49.2505 42.6715 42.9218L42.759 42.7467C43.0592 42.1213 43.8095 41.8587 44.4223 42.1588C45.0476 42.459 45.3103 43.2095 45.0101 43.8223L44.9476 43.9724C39.8576 55.0039 37.5565 54.1534 36.5685 53.7907C36.3184 53.6906 36.1183 53.578 35.8932 53.453C34.9677 52.9402 34.4049 52.6275 33.2919 53.8532C33.1418 54.0158 32.8667 54.4536 32.6541 54.8163C31.6661 56.4547 30.0278 59.1814 26.8763 59.519C26.8262 59.519 26.7887 59.519 26.7387 59.519H26.7262Z" fill="#54A9F7"/>
<path d="M79.2269 63.2709C79.1268 63.2709 79.0143 63.2584 78.9142 63.2334C78.8267 63.2084 78.0763 63.0083 77.501 62.7331C76.5505 62.2704 75.9628 61.2823 75.3375 60.2317C74.6621 59.106 73.9743 57.9428 73.0363 57.7927C72.1859 57.6551 70.9353 58.2555 69.422 59.5312C68.8968 60.0315 67.8463 60.2567 66.7958 60.019C65.9454 59.8314 64.3696 59.1935 63.4816 57.0047C62.9814 55.6039 61.7683 53.8654 61.2681 53.8029C61.1055 53.8029 60.5302 54.028 59.4547 56.1167C59.1545 56.642 57.6788 59.0435 55.5903 59.2186C54.8649 59.2811 53.8019 59.0935 52.8264 57.8803C51.7759 56.7796 50.3877 53.8904 48.6869 50.2258C48.1992 49.1751 47.774 48.2621 47.4738 47.6743C47.3112 47.324 46.8485 46.8112 46.4733 46.4986C45.9481 46.0483 45.8855 45.2603 46.3232 44.735C46.7735 44.2097 47.5614 44.1472 48.0866 44.5849C48.3617 44.8226 49.2872 45.6481 49.7124 46.5611C50 47.1114 50.4378 48.062 50.9505 49.1501C52.0761 51.5765 53.7894 55.2412 54.7024 56.2168C55.0025 56.5795 55.2026 56.7421 55.3777 56.7046C55.9029 56.667 56.7784 55.7415 57.2536 54.9035C58.1665 53.14 59.3921 51.2764 61.3056 51.2764C64.0569 51.3514 65.8078 56.0542 65.8203 56.0917C66.0954 56.7546 66.5206 57.2424 67.0334 57.4675C67.4211 57.6301 67.7462 57.5926 67.8463 57.5676C70.0098 55.7665 71.8232 55.0286 73.449 55.3163C75.525 55.6665 76.6131 57.48 77.4885 58.9434C77.8387 59.5312 78.3264 60.3442 78.6015 60.4818C78.9017 60.6319 79.3894 60.7695 79.552 60.807C80.2148 60.9821 80.615 61.67 80.4399 62.3329C80.2899 62.8957 79.7896 63.2709 79.2269 63.2709ZM67.7963 57.5926C67.7963 57.5926 67.7587 57.6301 67.7337 57.6551C67.7587 57.6301 67.7838 57.6176 67.7963 57.5926Z" fill="#54A9F7"/>
<path d="M36.0682 64.847C31.0032 64.847 26.1133 62.0328 23.7121 57.1925C22.0864 53.903 21.8362 50.1633 23.0118 46.6863C24.1874 43.2092 26.6511 40.3951 29.9402 38.7566C36.7435 35.3921 44.9975 38.1938 48.3617 44.9853C51.7258 51.7893 48.9245 60.0441 42.1337 63.4086C40.1827 64.3717 38.1067 64.8344 36.0557 64.8344L36.0682 64.847ZM31.0532 41.0079C25.488 43.7596 23.1994 50.526 25.9507 56.0793C27.2889 58.7684 29.59 60.7821 32.4289 61.7451C35.2803 62.7082 38.3318 62.5081 41.0206 61.1698C46.5858 58.4182 48.8745 51.6517 46.1231 46.0984C43.3718 40.5326 36.6059 38.2563 31.0532 40.9954V41.0079Z" fill="#54A9F7"/>
<path d="M17.2965 62.0084C16.8338 62.0084 16.3961 61.7583 16.171 61.3206C15.8583 60.6952 16.121 59.9573 16.7338 59.6446L24.375 55.8423C24.9878 55.5296 25.7382 55.7923 26.0508 56.4052C26.3635 57.0305 26.1008 57.7685 25.488 58.0812L17.8468 61.8834C17.6717 61.971 17.4841 62.0084 17.2965 62.0084Z" fill="#54A9F7"/>
<path d="M5.89097 71.3886C5.35321 71.3886 4.81544 71.301 4.27767 71.1259C3.01456 70.7007 1.98905 69.8001 1.40126 68.5994C0.813476 67.3987 0.713431 66.0479 1.15114 64.7847C1.57635 63.5214 2.4768 62.4958 3.67739 61.908L14.8829 56.3672C15.5082 56.0546 16.246 56.3172 16.5587 56.9301L19.8853 63.659C20.0354 63.9592 20.0604 64.2969 19.9478 64.6096C19.8478 64.9223 19.6102 65.1849 19.3225 65.335L8.11706 70.8757C7.41672 71.226 6.66635 71.4011 5.90347 71.4011L5.89097 71.3886ZM14.8704 59.1564L4.77793 64.1468C4.17764 64.447 3.7274 64.9598 3.5148 65.5852C3.3022 66.223 3.35223 66.8984 3.63987 67.4988C3.94002 68.0991 4.45276 68.5494 5.07807 68.762C5.71588 68.9747 6.39121 68.9246 6.9915 68.637L17.084 63.6465L14.8704 59.1689V59.1564Z" fill="#54A9F7"/>
</g>
<defs>
<clipPath id="clip0_198_138059">
<rect width="100" height="100" fill="white" transform="translate(0.5)"/>
</clipPath>
</defs>
</svg>
