<svg width="100" height="100" viewBox="0 0 100 100" fill="none" xmlns="http://www.w3.org/2000/svg">
<g clip-path="url(#clip0_198_137947)">
<path d="M66.9079 69.9563H64.6544V60.9425C64.6544 54.9483 60.3278 50.7681 54.1195 50.7681H45.8944C39.6974 50.7681 35.3595 54.9483 35.3595 60.9425V69.9563H33.106V60.9425C33.106 53.7427 38.4805 48.5146 45.8944 48.5146H54.1195C61.5334 48.5146 66.9079 53.7427 66.9079 60.9425V69.9563Z" fill="white"/>
<path d="M50.0408 45.991C45.8043 45.991 42.9537 42.6558 42.9537 37.6982C42.9537 32.7406 45.8043 29.4055 50.0408 29.4055C54.2773 29.4055 57.1279 32.7406 57.1279 37.6982C57.1279 42.6558 54.2773 45.991 50.0408 45.991ZM50.0408 31.6477C46.4691 31.6477 45.2071 34.7688 45.2071 37.687C45.2071 40.6052 46.4803 43.7262 50.0408 43.7262C53.6013 43.7262 54.8745 40.6052 54.8745 37.687C54.8745 34.7688 53.6013 31.6477 50.0408 31.6477Z" fill="white"/>
<path d="M59.2911 71.0157H40.3396V67.5679L39.3706 59.7822C39.2804 59.0273 39.5058 58.2724 40.0128 57.6977C40.5086 57.1344 41.2297 56.8076 41.9846 56.8076H57.6461C58.401 56.8076 59.1221 57.1344 59.6292 57.6977C60.1249 58.2611 60.3615 59.0273 60.2714 59.7709L59.3024 67.5566V71.0044L59.2911 71.0157ZM42.593 68.7622H57.0377V67.3651L58.0292 59.5118C58.0517 59.354 57.9841 59.2526 57.9391 59.2076C57.894 59.1625 57.8039 59.0723 57.6461 59.0723H41.9846C41.8381 59.0723 41.7367 59.1512 41.6916 59.2076C41.6466 59.2526 41.579 59.3653 41.5902 59.5118L42.5818 67.5115V68.7735L42.593 68.7622Z" fill="white"/>
<path d="M68.0347 71.083H31.9794C31.3597 71.083 30.8526 70.576 30.8526 69.9563C30.8526 69.3366 31.3597 68.8296 31.9794 68.8296H68.0347C68.6544 68.8296 69.1614 69.3366 69.1614 69.9563C69.1614 70.576 68.6544 71.083 68.0347 71.083Z" fill="white"/>
<path d="M35.3595 81.9786C35.1792 81.9786 34.9877 81.9335 34.8187 81.8434C24.7345 76.2886 18.4586 65.6974 18.4586 54.1822C18.4586 42.667 24.7232 32.0758 34.8187 26.521C35.3595 26.2168 36.0468 26.4196 36.351 26.9604C36.6553 27.5012 36.4524 28.1886 35.9116 28.4928C26.5372 33.6532 20.7233 43.4895 20.7233 54.1709C20.7233 64.8523 26.5485 74.6999 35.9116 79.8491C36.4524 80.1533 36.6553 80.8293 36.351 81.3814C36.1482 81.7532 35.7651 81.9673 35.3595 81.9673V81.9786Z" fill="#54A9F7"/>
<path d="M18.4586 28.2673C15.3489 28.2673 12.825 25.7434 12.825 22.6336C12.825 19.5239 15.3489 17 18.4586 17C21.5684 17 24.0923 19.5239 24.0923 22.6336C24.0923 25.7434 21.5684 28.2673 18.4586 28.2673ZM18.4586 19.2535C16.5995 19.2535 15.0785 20.7745 15.0785 22.6336C15.0785 24.4927 16.5995 26.0138 18.4586 26.0138C20.3177 26.0138 21.8388 24.4927 21.8388 22.6336C21.8388 20.7745 20.3177 19.2535 18.4586 19.2535Z" fill="#54A9F7"/>
<path d="M28.3175 33.6194C28.0245 33.6194 27.7429 33.5067 27.5175 33.2926L20.9937 26.7688C20.5543 26.3294 20.5543 25.6196 20.9937 25.1802C21.4332 24.7407 22.143 24.7407 22.5824 25.1802L29.1062 31.7039C29.5456 32.1433 29.5456 32.8532 29.1062 33.2926C28.8809 33.518 28.5992 33.6194 28.3062 33.6194H28.3175Z" fill="#54A9F7"/>
<path d="M5.63647 59.8157C4.19426 59.8157 2.75204 59.2636 1.64784 58.1707C-0.54928 55.9736 -0.54928 52.4018 1.64784 50.2047C3.84496 48.0076 7.4167 48.0076 9.61382 50.2047C11.8109 52.4018 11.8109 55.9736 9.61382 58.1707C8.52089 59.2636 7.07867 59.8157 5.62519 59.8157H5.63647ZM5.63647 50.8019C4.76889 50.8019 3.90131 51.1286 3.24781 51.7934C1.92954 53.1117 1.92954 55.2525 3.24781 56.5707C4.56608 57.889 6.70686 57.889 8.02513 56.5707C9.3434 55.2525 9.3434 53.1117 8.02513 51.7934C7.37163 51.1399 6.50405 50.8019 5.63647 50.8019Z" fill="#54A9F7"/>
<path d="M19.5853 55.3089H10.3687C9.74898 55.3089 9.24195 54.8018 9.24195 54.1821C9.24195 53.5624 9.74898 53.0554 10.3687 53.0554H19.5853C20.205 53.0554 20.712 53.5624 20.712 54.1821C20.712 54.8018 20.205 55.3089 19.5853 55.3089Z" fill="#54A9F7"/>
<path d="M18.5149 91.3078C15.4052 91.3078 12.8813 88.7839 12.8813 85.6742C12.8813 82.5644 15.4052 80.0405 18.5149 80.0405C21.6247 80.0405 24.1486 82.5644 24.1486 85.6742C24.1486 88.7839 21.6247 91.3078 18.5149 91.3078ZM18.5149 82.294C16.6558 82.294 15.1348 83.8151 15.1348 85.6742C15.1348 87.5333 16.6558 89.0544 18.5149 89.0544C20.374 89.0544 21.8951 87.5333 21.8951 85.6742C21.8951 83.8151 20.374 82.294 18.5149 82.294Z" fill="#54A9F7"/>
<path d="M21.8613 83.4545C21.5683 83.4545 21.2867 83.3419 21.0613 83.1278C20.6219 82.6884 20.6219 81.9785 21.0613 81.5391L27.5851 75.0154C28.0245 74.5759 28.7344 74.5759 29.1738 75.0154C29.6132 75.4548 29.6132 76.1646 29.1738 76.604L22.65 83.1278C22.4247 83.3531 22.143 83.4545 21.8501 83.4545H21.8613Z" fill="#54A9F7"/>
<path d="M64.6545 82.0349C64.2601 82.0349 63.8658 81.8209 63.663 81.449C63.3587 80.9082 63.5616 80.2209 64.1024 79.9167C73.4768 74.7563 79.2907 64.9199 79.2907 54.2386C79.2907 43.5572 73.4655 33.7095 64.1024 28.5604C63.5616 28.2562 63.3587 27.5801 63.663 27.028C63.9672 26.4872 64.6432 26.2844 65.1953 26.5886C75.2908 32.1434 81.5554 42.7346 81.5554 54.2498C81.5554 65.765 75.2908 76.3562 65.1953 81.911C65.0263 82.0011 64.8348 82.0462 64.6545 82.0462V82.0349Z" fill="#54A9F7"/>
<path d="M81.5554 28.3232C78.4456 28.3232 75.9217 25.7993 75.9217 22.6896C75.9217 19.5798 78.4456 17.0559 81.5554 17.0559C84.6652 17.0559 87.189 19.5798 87.189 22.6896C87.189 25.7993 84.6652 28.3232 81.5554 28.3232ZM81.5554 19.3094C79.6963 19.3094 78.1752 20.8304 78.1752 22.6896C78.1752 24.5487 79.6963 26.0697 81.5554 26.0697C83.4145 26.0697 84.9356 24.5487 84.9356 22.6896C84.9356 20.8304 83.4145 19.3094 81.5554 19.3094Z" fill="#54A9F7"/>
<path d="M71.6965 33.687C71.4035 33.687 71.1218 33.5743 70.8965 33.3602C70.4571 32.9208 70.4571 32.211 70.8965 31.7715L77.4202 25.2478C77.8597 24.8084 78.5695 24.8084 79.0089 25.2478C79.4483 25.6872 79.4483 26.397 79.0089 26.8365L72.4852 33.3602C72.2598 33.5856 71.9781 33.687 71.6852 33.687H71.6965Z" fill="#54A9F7"/>
<path d="M94.3777 59.8719C92.9355 59.8719 91.4932 59.3198 90.3891 58.2268C88.1919 56.0297 88.1919 52.458 90.3891 50.2609C92.5862 48.0638 96.1579 48.0638 98.355 50.2609C99.4142 51.32 100 52.7397 100 54.2495C100 55.7593 99.4142 57.1677 98.355 58.2381C97.2959 59.3085 95.8199 59.8831 94.3664 59.8831L94.3777 59.8719ZM91.989 51.8496C90.6707 53.1678 90.6707 55.3086 91.989 56.6269C93.3073 57.9452 95.4481 57.9452 96.7663 56.6269C97.4086 55.9847 97.7579 55.1396 97.7579 54.2382C97.7579 53.3368 97.4086 52.4918 96.7663 51.8496C95.4481 50.5313 93.3073 50.5313 91.989 51.8496Z" fill="#54A9F7"/>
<path d="M89.6453 55.3653H80.4287C79.809 55.3653 79.302 54.8582 79.302 54.2385C79.302 53.6188 79.809 53.1118 80.4287 53.1118H89.6453C90.265 53.1118 90.7721 53.6188 90.7721 54.2385C90.7721 54.8582 90.265 55.3653 89.6453 55.3653Z" fill="#54A9F7"/>
<path d="M81.499 91.3642C78.3892 91.3642 75.8654 88.8403 75.8654 85.7306C75.8654 82.6208 78.3892 80.0969 81.499 80.0969C84.6088 80.0969 87.1326 82.6208 87.1326 85.7306C87.1326 88.8403 84.6088 91.3642 81.499 91.3642ZM81.499 82.3504C79.6399 82.3504 78.1188 83.8715 78.1188 85.7306C78.1188 87.5897 79.6399 89.1108 81.499 89.1108C83.3581 89.1108 84.8792 87.5897 84.8792 85.7306C84.8792 83.8715 83.3581 82.3504 81.499 82.3504Z" fill="#54A9F7"/>
<path d="M78.1526 83.511C77.8597 83.511 77.578 83.3983 77.3526 83.1842L70.8289 76.6604C70.3895 76.221 70.3895 75.5112 70.8289 75.0718C71.2683 74.6323 71.9781 74.6323 72.4176 75.0718L78.9413 81.5955C79.3807 82.0349 79.3807 82.7448 78.9413 83.1842C78.716 83.4096 78.4343 83.511 78.1413 83.511H78.1526Z" fill="#54A9F7"/>
</g>
<defs>
<clipPath id="clip0_198_137947">
<rect width="100" height="100" fill="white"/>
</clipPath>
</defs>
</svg>
