<svg width="100" height="100" viewBox="0 0 100 100" fill="none" xmlns="http://www.w3.org/2000/svg">
<path d="M52.6896 92.5517H52.4397C51.8606 92.5299 51.1406 92.43 50.2642 91.8522C40.4541 85.398 32.1942 77.0221 25.719 66.959C25.3359 66.3646 25.5076 65.5716 26.1034 65.1886C26.6966 64.8081 27.4909 64.9785 27.874 65.5729C34.1557 75.3324 42.1632 83.4546 51.6736 89.7128C52.0413 89.9536 52.2642 89.9805 52.5409 89.9908C52.8382 89.9818 53.079 89.8947 53.3455 89.7166C80.6953 71.7286 88.3621 43.2163 90.3902 31.7927L90.435 31.5467C90.4376 31.4301 90.3825 31.3815 90.3453 31.3776C89.6061 31.2649 82.1956 29.953 79.7806 29.5187C78.9567 29.3791 78.4891 29.2997 76.8863 22.301C73.9165 20.6689 55.5454 11.9548 52.5871 10.6532C49.6403 11.8907 31.3179 20.478 28.2507 22.0576C28.2045 22.2382 28.1482 22.4611 28.0828 22.7174C26.5236 28.8731 26.2456 29.3496 25.2283 29.5239C22.6223 29.9863 15.2695 31.2879 14.6802 31.375C14.6366 31.3815 14.593 31.4314 14.593 31.5032L14.6405 31.7825C14.9044 33.2673 15.2195 34.7995 15.5757 36.3278C15.7371 37.0171 15.3092 37.705 14.6199 37.8664C13.9345 38.024 13.2414 37.5987 13.0812 36.9107C12.7135 35.3375 12.3894 33.7592 12.1165 32.2219L12.0857 32.0361C12.0537 31.9042 12.0306 31.7017 12.0306 31.5032C12.0306 30.1747 13.0108 29.0294 14.3073 28.841C14.7558 28.7744 20.238 27.8072 24.2008 27.1051C24.6095 25.9957 25.3385 23.1209 25.5998 22.0883C25.8398 21.1412 26.0184 20.5894 26.1354 20.4331C26.3788 20.1141 26.5095 19.9463 39.2305 13.9738C51.9542 8.00002 52.2424 8 52.6076 8C52.9266 8 53.2033 8 65.9385 14.084C78.926 20.2884 78.976 20.419 79.2143 21.0455C79.2373 21.1032 79.254 21.1608 79.2681 21.221C79.7729 23.4501 80.4493 26.0764 80.8209 27.1026C83.8189 27.6394 90.1019 28.7501 90.7015 28.841C92.0007 29.0089 93 30.1542 93 31.5044C93 31.6607 92.9833 31.8478 92.9564 32.0015L92.9116 32.2488C90.8284 43.9914 82.9362 73.3236 54.7613 91.8535C54.1117 92.2852 53.4134 92.5222 52.6921 92.5517H52.6896ZM24.7863 27.0014C24.7863 27.0014 24.7773 27.0014 24.7735 27.0039C24.7773 27.0039 24.7824 27.0014 24.7863 27.0014ZM80.22 26.9937C80.229 26.9962 80.2366 26.9975 80.2443 26.9988C80.2366 26.9988 80.229 26.9962 80.22 26.9937Z" fill="white"/>
<path d="M71.8076 26.0816C71.6205 26.0816 71.4284 26.0406 71.2477 25.9522C64.4035 22.6201 54.7228 18.0529 52.6293 17.1382C50.5704 17.9953 41.1792 22.3677 33.9443 25.8126C33.3037 26.1136 32.5413 25.8446 32.2364 25.2053C31.9328 24.5673 32.2044 23.8025 32.8437 23.4976C45.4046 17.5187 52.0681 14.4863 52.6498 14.4863C53.5338 14.4863 72.1817 23.5566 72.37 23.6475C73.0068 23.9575 73.2707 24.7249 72.962 25.3603C72.739 25.8151 72.2842 26.0803 71.8089 26.0803L71.8076 26.0816Z" fill="white"/>
<path d="M21.0119 65.1807H14.2048C10.784 65.1807 8 62.3969 8 58.9763V45.763C8 42.3424 10.784 39.5586 14.2048 39.5586H21.0119C24.434 39.5586 27.218 42.3424 27.218 45.763V47.2452H52.842C53.5505 47.2452 54.1232 47.8179 54.1232 48.5263C54.1232 49.2348 53.5505 49.8074 52.842 49.8074H25.9368C25.2283 49.8074 24.6556 49.2348 24.6556 48.5263V45.763C24.6556 43.7555 23.0221 42.1208 21.0119 42.1208H14.2048C12.1972 42.1208 10.5624 43.7542 10.5624 45.763V58.9763C10.5624 60.9838 12.1959 62.6185 14.2048 62.6185H21.0119C23.0208 62.6185 24.6556 60.9851 24.6556 58.9763V56.213C24.6556 55.5045 25.2283 54.9319 25.9368 54.9319H55.4044C56.1129 54.9319 56.6856 55.5045 56.6856 56.213C56.6856 56.9214 56.1129 57.4941 55.4044 57.4941H27.218V58.9763C27.218 62.3969 24.434 65.1807 21.0119 65.1807Z" fill="#54A9F7"/>
<path d="M19.5308 60.0564H15.6872C14.2741 60.0564 13.1248 58.9072 13.1248 57.4942V47.2453C13.1248 45.8323 14.2741 44.6831 15.6872 44.6831H19.5308C20.944 44.6831 22.0932 45.8323 22.0932 47.2453V57.4942C22.0932 58.9072 20.944 60.0564 19.5308 60.0564ZM15.6872 47.2453V57.4942H19.5308V47.2453H15.6872Z" fill="#54A9F7"/>
<path d="M57.2135 64.3801H48.4693C48.0849 64.3801 47.7211 64.2072 47.4789 63.9112C47.2355 63.614 47.1381 63.2233 47.2137 62.8466L48.436 56.7614C48.5756 56.0683 49.2534 55.6122 49.9452 55.7582C50.6384 55.8966 51.0881 56.573 50.9484 57.2674L50.0337 61.8192H55.6517L54.5563 56.3424C54.4691 55.9056 54.6139 55.4559 54.9406 55.1523C55.5812 54.5566 55.9336 53.7559 55.9336 52.8988C55.9336 51.1949 54.5473 49.8088 52.8433 49.8088C52.1348 49.8088 51.5621 49.2361 51.5621 48.5277C51.5621 47.8192 52.1348 47.2466 52.8433 47.2466C55.9605 47.2466 58.496 49.7819 58.496 52.8988C58.496 54.226 58.0399 55.4764 57.1981 56.4872L58.4703 62.8492C58.5459 63.2258 58.4473 63.6166 58.2051 63.9125C57.9617 64.2084 57.5978 64.3814 57.2148 64.3814L57.2135 64.3801Z" fill="#54A9F7"/>
<path d="M58.8061 70.5242C58.309 70.5242 57.8362 70.2334 57.6286 69.7478C57.3493 69.0983 57.6517 68.345 58.3013 68.067C58.8624 67.8262 59.4082 67.5495 59.9258 67.2407C61.3223 66.4131 62.5548 65.3575 63.5875 64.1046C65.6425 61.6141 66.7751 58.4613 66.7751 55.2265C66.7751 47.5284 60.5126 41.2676 52.8152 41.2676C49.7262 41.2676 46.7999 42.2553 44.3516 44.1257C43.7878 44.5562 42.9858 44.4447 42.5553 43.8849C42.1261 43.3225 42.2337 42.5179 42.7949 42.0888C45.6955 39.8737 49.1599 38.7041 52.8152 38.7041C61.9258 38.7041 69.3375 46.1153 69.3375 55.2252C69.3375 59.0532 67.9974 62.785 65.5644 65.7341C64.3409 67.2151 62.8841 68.4642 61.2327 69.4442C60.619 69.8081 59.9732 70.136 59.3096 70.4204C59.1456 70.4922 58.9739 70.5242 58.8048 70.5242H58.8061Z" fill="#54A9F7"/>
<path d="M52.8151 71.7463C49.3123 71.7463 45.9645 70.6638 43.1357 68.6153C42.563 68.2015 42.4348 67.3996 42.8499 66.8269C43.2625 66.2542 44.0632 66.1235 44.6385 66.5412C47.0267 68.2707 49.853 69.1841 52.8139 69.1841C53.5224 69.1841 54.0951 69.7568 54.0951 70.4652C54.0951 71.1737 53.5224 71.7463 52.8139 71.7463H52.8151Z" fill="#54A9F7"/>
<path d="M40.3913 65.3346C39.9916 65.3346 39.5957 65.1476 39.3471 64.7966C38.6988 63.8857 38.1454 62.9108 37.6982 61.9025C37.4125 61.2543 37.7059 60.4984 38.3529 60.2128C39.0063 59.9296 39.7584 60.2205 40.0428 60.8674C40.4182 61.7194 40.8871 62.5418 41.4342 63.3105C41.8442 63.887 41.7097 64.6877 41.1344 65.0976C40.9076 65.2591 40.6489 65.3359 40.3926 65.3359L40.3913 65.3346Z" fill="#54A9F7"/>
</svg>
