<svg width="101" height="100" viewBox="0 0 101 100" fill="none" xmlns="http://www.w3.org/2000/svg">
<path d="M63.2696 82.7311H37.3146C36.5187 82.7311 35.8727 82.0851 35.8727 81.2891C35.8727 80.4932 36.5187 79.8472 37.3146 79.8472H63.2696C64.0655 79.8472 64.7115 80.4932 64.7115 81.2891C64.7115 82.0851 64.0655 82.7311 63.2696 82.7311Z" fill="white"/>
<path d="M56.0599 90.0001H44.5243C43.7284 90.0001 43.0824 89.3541 43.0824 88.5582C43.0824 87.7622 43.7284 87.1162 44.5243 87.1162H56.0599C56.8558 87.1162 57.5018 87.7622 57.5018 88.5582C57.5018 89.3541 56.8558 90.0001 56.0599 90.0001Z" fill="white"/>
<path d="M63.9069 74.2699C63.8608 74.2699 63.8161 74.2684 63.7685 74.2641C62.9754 74.1891 62.3943 73.484 62.4693 72.6924L62.6409 70.8856C63.3056 65.8734 65.6503 61.2563 69.431 57.4828C74.3711 52.5484 77.0921 46.0006 77.0921 39.0432C77.0921 31.646 73.9155 24.5618 68.3784 19.6044C62.7029 14.5258 55.3577 12.2 47.6909 13.0493C35.7732 14.3744 26.0588 23.9042 24.5909 35.708C23.5571 44.0309 26.4236 52.113 32.4553 57.8822C36.3082 61.5678 38.6225 66.6492 38.97 72.192L39.0103 72.7169C39.0709 73.5114 38.4783 74.205 37.6838 74.2655C36.8835 74.329 36.1957 73.7335 36.1351 72.9389L36.0933 72.3925C35.7905 67.5547 33.7905 63.1482 30.4625 59.9658C23.7647 53.5607 20.5823 44.5889 21.7301 35.3518C23.3595 22.2388 34.1438 11.6535 47.3736 10.1827C55.7426 9.25266 64.1002 11.903 70.3034 17.4544C76.4518 22.9569 79.9774 30.8256 79.9774 39.0418C79.9774 46.7691 76.9565 54.0423 71.4699 59.5217C68.1434 62.8439 66.0814 66.8857 65.5075 71.2101L65.3417 72.9635C65.271 73.7104 64.6423 74.2684 63.9069 74.2684V74.2699Z" fill="white"/>
<path d="M63.6474 82.5509H37.6924C36.8965 82.5509 36.2505 81.9049 36.2505 81.1089C36.2505 80.313 36.8965 79.667 37.6924 79.667H63.6474C64.4434 79.667 65.0893 80.313 65.0893 81.1089C65.0893 81.9049 64.4434 82.5509 63.6474 82.5509Z" fill="white"/>
<path d="M56.4376 89.8199H44.9021C44.1061 89.8199 43.4601 89.1739 43.4601 88.378C43.4601 87.582 44.1061 86.936 44.9021 86.936H56.4376C57.2336 86.936 57.8796 87.582 57.8796 88.378C57.8796 89.1739 57.2336 89.8199 56.4376 89.8199Z" fill="white"/>
<path d="M50.7593 29.4384C47.5784 29.4384 44.9915 26.8515 44.9915 23.6706C44.9915 20.4897 47.5784 17.9028 50.7593 17.9028C53.9402 17.9028 56.5271 20.4897 56.5271 23.6706C56.5271 26.8515 53.9402 29.4384 50.7593 29.4384ZM50.7593 20.7867C49.1688 20.7867 47.8754 22.0801 47.8754 23.6706C47.8754 25.2611 49.1688 26.5545 50.7593 26.5545C52.3497 26.5545 53.6432 25.2611 53.6432 23.6706C53.6432 22.0801 52.3497 20.7867 50.7593 20.7867Z" fill="#54A9F7"/>
<path d="M37.0609 37.0087C33.8799 37.0087 31.2931 34.4218 31.2931 31.2409C31.2931 28.06 33.8799 25.4731 37.0609 25.4731C40.2418 25.4731 42.8286 28.06 42.8286 31.2409C42.8286 34.4218 40.2418 37.0087 37.0609 37.0087ZM37.0609 28.357C35.4704 28.357 34.177 29.6505 34.177 31.2409C34.177 32.8314 35.4704 34.1248 37.0609 34.1248C38.6513 34.1248 39.9447 32.8314 39.9447 31.2409C39.9447 29.6505 38.6513 28.357 37.0609 28.357Z" fill="#54A9F7"/>
<path d="M50.7578 47.8824C50.4911 47.8824 50.2214 47.8089 49.9806 47.6546L43.1371 43.2682C42.7233 43.0029 42.4739 42.5458 42.4739 42.0541V36.9972L39.9087 35.0261C39.2771 34.5416 39.1574 33.636 39.6433 33.0045C40.1293 32.3715 41.0319 32.2532 41.6649 32.7392L44.7939 35.1414C45.1501 35.414 45.3577 35.8365 45.3577 36.2849V41.2639L51.5379 45.2249C52.2084 45.6546 52.4045 46.5458 51.9734 47.2163C51.698 47.646 51.2337 47.8796 50.7578 47.8796V47.8824Z" fill="#54A9F7"/>
<path d="M64.6048 37.0087C61.4239 37.0087 58.837 34.4218 58.837 31.2409C58.837 28.06 61.4239 25.4731 64.6048 25.4731C67.7857 25.4731 70.3726 28.06 70.3726 31.2409C70.3726 34.4218 67.7857 37.0087 64.6048 37.0087ZM64.6048 28.357C63.0143 28.357 61.7209 29.6505 61.7209 31.2409C61.7209 32.8314 63.0143 34.1248 64.6048 34.1248C66.1953 34.1248 67.4887 32.8314 67.4887 31.2409C67.4887 29.6505 66.1953 28.357 64.6048 28.357Z" fill="#54A9F7"/>
<path d="M50.9078 47.8822C50.4319 47.8822 49.9677 47.6471 49.6922 47.2189C49.2625 46.5484 49.4572 45.6572 50.1277 45.2275L56.3079 41.2665V36.2875C56.3079 35.8347 56.5213 35.4065 56.8832 35.1339L60.2328 32.6178C60.8702 32.1405 61.7728 32.2688 62.2516 32.9047C62.7303 33.5406 62.6005 34.4447 61.9646 34.9234L59.1918 37.0056V42.0524C59.1918 42.5441 58.9423 43.0012 58.5285 43.2665L51.685 47.6529C51.4442 47.8072 51.1745 47.8807 50.9078 47.8807V47.8822Z" fill="#54A9F7"/>
<path d="M50.7593 64.4053C50.4002 64.4053 50.0412 64.2727 49.7629 64.0045L42.7334 57.2749C42.1581 56.7241 42.1379 55.8114 42.6887 55.236C43.2395 54.6607 44.1523 54.6405 44.7276 55.1913L51.7571 61.9194C52.3324 62.4703 52.3526 63.383 51.8018 63.9583C51.5192 64.2539 51.1399 64.4039 50.7607 64.4039L50.7593 64.4053Z" fill="#54A9F7"/>
<path d="M40.6657 58.8769C37.4848 58.8769 34.8979 56.29 34.8979 53.1091C34.8979 49.9282 37.4848 47.3413 40.6657 47.3413C43.8466 47.3413 46.4335 49.9282 46.4335 53.1091C46.4335 56.29 43.8466 58.8769 40.6657 58.8769ZM40.6657 50.2252C39.0753 50.2252 37.7818 51.5186 37.7818 53.1091C37.7818 54.6995 39.0753 55.993 40.6657 55.993C42.2562 55.993 43.5496 54.6995 43.5496 53.1091C43.5496 51.5186 42.2562 50.2252 40.6657 50.2252Z" fill="#54A9F7"/>
<path d="M50.7592 64.4054C50.38 64.4054 50.0007 64.2554 49.7181 63.9598C49.1673 63.3845 49.1875 62.4718 49.7628 61.9209L56.7923 55.1928C57.3676 54.642 58.2804 54.6608 58.8312 55.2375C59.382 55.8129 59.3618 56.7256 58.7865 57.2764L51.757 64.006C51.4773 64.2742 51.1182 64.4068 50.7606 64.4068L50.7592 64.4054Z" fill="#54A9F7"/>
<path d="M60.8528 58.8769C57.6719 58.8769 55.085 56.29 55.085 53.1091C55.085 49.9282 57.6719 47.3413 60.8528 47.3413C64.0337 47.3413 66.6206 49.9282 66.6206 53.1091C66.6206 56.29 64.0337 58.8769 60.8528 58.8769ZM60.8528 50.2252C59.2623 50.2252 57.9689 51.5186 57.9689 53.1091C57.9689 54.6995 59.2623 55.993 60.8528 55.993C62.4433 55.993 63.7367 54.6995 63.7367 53.1091C63.7367 51.5186 62.4433 50.2252 60.8528 50.2252Z" fill="#54A9F7"/>
<path d="M50.7593 74.1385C49.9634 74.1385 49.3174 73.4926 49.3174 72.6966V27.9964C49.3174 27.2004 49.9634 26.5544 50.7593 26.5544C51.5553 26.5544 52.2013 27.2004 52.2013 27.9964V72.6966C52.2013 73.4926 51.5553 74.1385 50.7593 74.1385Z" fill="#54A9F7"/>
</svg>
