<svg width="101" height="100" viewBox="0 0 101 100" fill="none" xmlns="http://www.w3.org/2000/svg">
<path d="M25.0086 89.1181C24.7525 89.1181 24.4939 89.0362 24.2769 88.8643C23.7622 88.4599 23.672 87.7151 24.0765 87.2004L26.9797 83.5025C27.2454 83.1645 27.6688 82.9913 28.0981 83.0637C29.641 83.3044 31.1757 82.8455 32.3106 81.7983L33.3436 80.8673C33.8299 80.4285 34.5794 80.4664 35.0194 80.955C35.4582 81.4413 35.4179 82.1908 34.9316 82.6296L33.9093 83.5499C32.4233 84.9221 30.4641 85.6171 28.4385 85.4843L25.942 88.665C25.7083 88.9639 25.3597 89.1192 25.0086 89.1192V89.1181Z" fill="white"/>
<path d="M75.9916 89.1181C75.6405 89.1181 75.2918 88.9627 75.0582 88.6639L72.5617 85.4831C70.5397 85.6195 68.5757 84.9209 67.0802 83.5381L66.0686 82.6273C65.5823 82.1885 65.5432 81.4389 65.9808 80.9527C66.4208 80.4652 67.1691 80.4273 67.6566 80.8649L68.6789 81.7852C69.8233 82.8455 71.3627 83.3068 72.9033 83.0613C73.3279 82.9878 73.756 83.161 74.0217 83.5001L76.9249 87.198C77.3293 87.7139 77.2392 88.4575 76.7245 88.8619C76.5075 89.0339 76.2489 89.1157 75.9927 89.1157L75.9916 89.1181Z" fill="white"/>
<path d="M11.7057 80.1403C11.5029 80.1403 11.2966 80.0881 11.1092 79.9778C10.5435 79.6481 10.3526 78.9211 10.6834 78.3554L11.3298 77.2489L10.5933 70.8494C10.2197 67.6045 10.9693 64.6894 12.8194 62.1858L17.3972 54.8637C17.7447 54.3086 18.4776 54.1402 19.0315 54.4877C19.5865 54.8352 19.7549 55.5669 19.4074 56.122L14.7774 63.5212C13.2439 65.6014 12.6462 67.9509 12.9486 70.5801L13.7302 77.3734C13.7587 77.6284 13.7053 77.8857 13.576 78.1075L12.7304 79.5556C12.5098 79.9315 12.1125 80.1426 11.7057 80.1426V80.1403Z" fill="white"/>
<path d="M89.2928 80.1404C88.8848 80.1404 88.4887 79.9305 88.2681 79.5534L87.4225 78.1053C87.2932 77.8823 87.2387 77.6262 87.2683 77.3712L88.0499 70.5779C88.3523 67.9486 87.7546 65.6004 86.2721 63.5961L81.5911 56.121C81.2436 55.5659 81.412 54.8342 81.967 54.4867C82.5221 54.1404 83.2526 54.3076 83.6013 54.8626L88.2313 62.2619C90.0305 64.6896 90.78 67.6035 90.4064 70.8495L89.6699 77.249L90.3163 78.3555C90.6472 78.9224 90.4562 79.6482 89.8905 79.9779C89.7019 80.0882 89.4968 80.1404 89.294 80.1404H89.2928Z" fill="white"/>
<path d="M62.61 25.0092C62.5863 25.0092 62.5625 25.0092 62.5376 25.0068C61.8842 24.9677 61.3849 24.4067 61.4252 23.752C61.8462 16.6635 58.6156 16.2401 58.5836 16.2377C57.9906 16.1962 57.5198 15.7218 57.4818 15.1288L57.317 12.4924C57.2755 11.839 57.7724 11.2756 58.4271 11.2341C59.0948 11.1926 59.6439 11.6895 59.6854 12.3442L59.798 14.1374C61.3991 14.7671 64.2122 16.877 63.7948 23.8932C63.758 24.5229 63.235 25.008 62.6124 25.008L62.61 25.0092Z" fill="white"/>
<path d="M50.2532 52.3932C50.0931 52.3932 49.933 52.3611 49.7836 52.2959C49.7764 52.2935 49.7681 52.29 49.761 52.2864C49.7563 52.284 49.7515 52.2828 49.7468 52.2805L22.4114 40.5607C21.8089 40.3034 21.5302 39.606 21.7887 39.0035C24.8272 31.915 30.3633 26.2508 37.3759 23.0534C37.9725 22.7795 38.6758 23.0451 38.9473 23.6405C39.2201 24.237 38.9568 24.9403 38.3603 25.2119C32.2466 28.0001 27.3474 32.8187 24.4583 38.8577L50.2698 49.9251L76.2793 39.5254C73.3441 32.9515 68.1234 27.7997 61.4666 24.945C58.7353 23.7745 55.8664 23.038 52.9371 22.7569C52.2848 22.6941 51.8068 22.1141 51.8697 21.463C51.9325 20.8119 52.5065 20.3411 53.1636 20.3957C56.336 20.7005 59.4433 21.4974 62.4011 22.7652C70.0044 26.0255 75.8797 32.0537 78.943 39.7388C79.1861 40.3472 78.8897 41.0363 78.2813 41.2794L50.6932 52.3101C50.5521 52.3659 50.4026 52.3943 50.2532 52.3943V52.3932Z" fill="#54A9F7"/>
<path d="M48.9134 41.5879C48.1567 41.5879 47.4143 41.3305 46.8059 40.8384L39.4019 34.8445C37.6443 33.3134 36.6421 31.1395 36.622 28.853C36.5947 25.8785 37.1296 21.4003 37.6467 17.0692L37.9598 14.4102C38.1436 12.8174 37.9254 12.5198 37.7131 12.2328C37.5945 12.0727 37.4854 11.9149 37.3905 11.7335C37.0881 11.1523 37.3146 10.436 37.8945 10.1336C38.4757 9.83235 39.1908 10.0577 39.4944 10.6376C39.53 10.7076 39.5774 10.7645 39.6237 10.8262C40.1419 11.5295 40.5843 12.3537 40.3163 14.6806L40.0008 17.349C39.492 21.6055 38.9666 26.0078 38.9927 28.8292C39.007 30.4386 39.7126 31.9673 40.9271 33.0264L48.2979 38.9918C48.6786 39.3002 49.0782 39.2124 49.2336 39.1602C49.3878 39.108 49.7602 38.9361 49.8764 38.4605L49.963 38.1059C50.0199 37.8734 50.0555 37.6303 50.0697 37.3587C50.1171 36.5036 49.8918 35.645 49.4352 34.9322L44.8336 29.6428C44.5395 29.3048 44.4612 28.8292 44.6308 28.4141L45.831 25.4848C45.9769 25.129 46.2865 24.8657 46.6612 24.7791C50.1515 23.9715 52.0455 22.036 52.6219 18.6856C52.7322 18.0404 53.3442 17.5993 53.9917 17.7179C54.6369 17.8282 55.0709 18.4413 54.9595 19.0877C54.2562 23.1769 51.8487 25.8157 47.7998 26.9364L47.1036 28.6371L51.2794 33.4367C51.3126 33.4747 51.3434 33.515 51.3719 33.5577C52.1357 34.7057 52.5152 36.1016 52.4381 37.4868C52.4156 37.9019 52.3586 38.3004 52.2661 38.6728L52.1796 39.0262C51.9044 40.1493 51.0861 41.04 49.9902 41.4088C49.6368 41.5286 49.2727 41.5867 48.9122 41.5867L48.9134 41.5879Z" fill="white"/>
<path d="M48.3024 86.2147C44.11 86.2147 40.0172 85.3703 36.1367 83.7063C32.0237 81.944 28.4255 79.3835 25.4392 76.0984C24.9992 75.6133 25.0348 74.8626 25.5199 74.4226C26.0049 73.9826 26.7556 74.0181 27.1956 74.502C29.9507 77.5357 33.2737 79.8982 37.0712 81.5265C40.3077 82.9141 43.702 83.6838 47.1781 83.8214V56.0803L21.6334 45.1291C19.7454 50.0829 19.2722 55.415 20.2696 60.6238C20.3929 61.2666 19.9707 61.888 19.3279 62.0114C18.6827 62.1347 18.0637 61.7125 17.9403 61.0697C16.7804 55.007 17.4576 48.7902 19.8995 43.094C20.0229 42.8046 20.2565 42.5769 20.5495 42.4595C20.8412 42.3444 21.1674 42.3468 21.4567 42.4713L48.8325 54.2077C49.2689 54.3939 49.5512 54.8232 49.5512 55.2976V85.0287C49.5512 85.7047 48.9878 86.2253 48.3035 86.2147H48.3024Z" fill="#54A9F7"/>
<path d="M25.4783 78.4588C25.291 78.4588 25.1012 78.415 24.9245 78.3213C24.3457 78.0141 24.1251 77.2978 24.4311 76.7178C27.0936 71.6881 23.9176 65.4155 23.8856 65.3527C23.6958 64.985 23.7101 64.545 23.9247 64.1916L27.2585 58.7029C27.7673 57.8656 27.8432 56.4484 27.4565 55.0051C27.3522 54.6161 27.0592 54.3374 26.6726 54.2579C26.4959 54.2223 26.0535 54.1844 25.7155 54.6113L19.775 62.5657C19.3824 63.0899 18.64 63.199 18.1146 62.8064C17.5904 62.4138 17.4825 61.6702 17.8739 61.146L23.8334 53.168C24.641 52.141 25.9041 51.6784 27.1494 51.9346C28.4148 52.1943 29.4098 53.136 29.7467 54.3919C30.3124 56.5006 30.144 58.5203 29.2853 59.934L26.2824 64.8783C27.1197 66.7794 29.2663 72.6523 26.5279 77.8267C26.3156 78.2288 25.9041 78.4577 25.4783 78.4577V78.4588Z" fill="white"/>
<path d="M52.6963 86.2147C52.0227 86.2289 51.4486 85.7047 51.4486 85.0287V55.2976C51.4486 54.8232 51.7309 54.3939 52.1673 54.2077L79.5431 42.4713C79.8313 42.3468 80.1586 42.3444 80.4504 42.4595C80.7433 42.5769 80.9758 42.8046 81.1003 43.094C83.5422 48.7902 84.2194 55.0058 83.0595 61.0697C82.9362 61.7125 82.3183 62.1347 81.6719 62.0114C81.0291 61.888 80.6069 61.2666 80.7303 60.6238C81.7277 55.415 81.2545 50.0829 79.3664 45.1291L53.8218 56.0803V83.8214C57.299 83.685 60.6921 82.9141 63.9286 81.5265C67.7261 79.8982 71.0492 77.5357 73.8042 74.502C74.2442 74.0181 74.9937 73.9826 75.48 74.4226C75.965 74.8626 76.0006 75.6133 75.5606 76.0983C72.5743 79.3835 68.9761 81.944 64.8632 83.7063C60.9827 85.3703 56.8899 86.2147 52.6975 86.2147H52.6963Z" fill="#54A9F7"/>
<path d="M75.5213 78.4584C75.0955 78.4584 74.684 78.2296 74.4717 77.8275C71.7321 72.6531 73.8787 66.7802 74.7172 64.8791L71.7143 59.9348C70.8557 58.5211 70.6873 56.5014 71.253 54.3927C71.5898 53.1368 72.5848 52.1951 73.8503 51.9354C75.0991 51.6816 76.3598 52.1441 77.1484 53.1451L82.815 60.0973C83.2289 60.6048 83.153 61.352 82.6442 61.7659C82.1366 62.1786 81.3907 62.1051 80.9756 61.5951L75.2971 54.6276C74.9497 54.184 74.5025 54.2231 74.3282 54.2575C73.9416 54.337 73.6486 54.6169 73.5443 55.0047C73.1577 56.448 73.2336 57.8653 73.7412 58.7025L77.0749 64.1912C77.2896 64.5446 77.3038 64.9846 77.1141 65.3523C77.082 65.4152 73.906 71.6877 76.5685 76.7174C76.8745 77.2962 76.6539 78.0137 76.0751 78.3209C75.8984 78.4146 75.7087 78.4584 75.5213 78.4584Z" fill="white"/>
</svg>
