<svg width="101" height="100" viewBox="0 0 101 100" fill="none" xmlns="http://www.w3.org/2000/svg">
<path d="M57.618 67.7987C56.4215 67.7987 55.2528 67.3129 54.3952 66.4553C53.5256 65.5844 53.0465 64.4276 53.0478 63.1954C53.0491 61.9645 53.5309 60.8091 54.4031 59.9409L55.8947 58.4982C56.4202 57.9887 57.258 58.0019 57.7662 58.5287C58.2744 59.0541 58.2612 59.8919 57.7344 60.4001L56.2561 61.8295C55.9 62.1856 55.6962 62.6766 55.6949 63.1981C55.6949 63.7209 55.8974 64.2132 56.268 64.5825C56.6425 64.9557 57.1402 65.2072 57.6669 65.149C58.1447 65.1357 58.5789 64.9385 58.8912 64.5891L67.7337 56.2906C67.9799 56.0603 68.3028 55.9319 68.639 55.9319H77.8852C78.6158 55.9319 79.2087 56.5262 79.2087 57.2567C79.2087 57.9873 78.6158 58.5803 77.8852 58.5803H69.1631L60.7825 66.4394C60.0599 67.252 58.9508 67.7629 57.7384 67.796C57.6987 67.796 57.659 67.796 57.6193 67.796L57.618 67.7987Z" fill="white"/>
<path d="M15.8235 37.7999C15.0929 37.7999 14.5 37.2083 14.5 36.4764C14.5 35.7445 15.0929 35.1529 15.8235 35.1529L85.9084 35.1489C86.639 35.1489 87.2319 35.7405 87.2319 36.4725C87.2319 37.2044 86.639 37.796 85.9084 37.796L15.8235 37.7999Z" fill="white"/>
<path d="M36.0524 61.8375C34.8228 61.8375 33.6674 61.3597 32.7978 60.4888C31.9283 59.6193 31.4491 58.4612 31.4505 57.2303C31.4505 55.9981 31.9322 54.8426 32.8044 53.9731L44.5905 42.2387C45.1106 41.7225 45.9471 41.7278 46.4619 42.2426C46.9781 42.7615 46.9768 43.5993 46.458 44.1154L34.6719 55.8498C34.3014 56.2178 34.0975 56.7088 34.0962 57.2329C34.0962 57.7557 34.2987 58.2481 34.6693 58.6173C35.4091 59.3572 36.6956 59.3572 37.4328 58.6173L46.6062 49.4453C47.1237 48.9278 47.9602 48.9278 48.4777 49.4453C48.9952 49.9628 48.9952 50.7993 48.4777 51.3168L39.3056 60.4888C38.4374 61.3584 37.2806 61.8375 36.0511 61.8375H36.0524Z" fill="white"/>
<path d="M44.3297 62.9614C43.2007 62.9614 42.081 62.4373 41.0857 61.442C40.2161 60.5711 39.737 59.4144 39.7383 58.1822C39.7383 56.9513 40.2214 55.7945 41.0936 54.9263L46.8828 49.1689C47.4003 48.6514 48.238 48.6554 48.7542 49.1742C49.2704 49.6931 49.2678 50.5295 48.7489 51.0457L42.9598 56.803C42.5892 57.171 42.3854 57.662 42.3841 58.1861C42.3841 58.7089 42.5866 59.2013 42.9572 59.5705C43.2417 59.8551 43.7553 60.2879 44.3561 60.3144C44.74 60.3038 45.1516 60.0563 45.5804 59.5758L51.3272 53.8264C51.8447 53.3089 52.6811 53.3089 53.1986 53.8264C53.7161 54.3439 53.7161 55.1804 53.1986 55.6979L47.5008 61.3957C46.6167 62.3857 45.5645 62.9283 44.4263 62.9601C44.3945 62.9601 44.3614 62.9601 44.3283 62.9601L44.3297 62.9614Z" fill="white"/>
<path d="M50.6905 65.5196C49.4941 65.5196 48.3241 65.0339 47.4678 64.1762C46.5969 63.3067 46.1191 62.1486 46.1204 60.9177C46.1204 59.6868 46.6022 58.5301 47.4744 57.6605L51.3497 53.8342C51.8698 53.3193 52.7076 53.3273 53.2211 53.8474C53.7347 54.3676 53.7294 55.204 53.2092 55.7189L49.3379 59.5412C48.9713 59.9052 48.7661 60.3963 48.7661 60.9204C48.7661 61.4445 48.9686 61.9355 49.3379 62.3048C49.7125 62.678 50.1982 62.9123 50.7382 62.8713C51.216 62.858 51.6501 62.6608 51.9625 62.3114L55.8179 58.4533C56.3354 57.9358 57.1719 57.9358 57.6894 58.4533C58.2069 58.9708 58.2069 59.8073 57.6894 60.3248L53.8842 64.1313C53.1311 64.9743 52.022 65.4839 50.8097 65.5183C50.77 65.5183 50.7289 65.5183 50.6892 65.5183L50.6905 65.5196Z" fill="white"/>
<path d="M58.4862 51.4505C57.2553 51.4505 56.0985 50.9714 55.229 50.1005L49.4862 44.3577H45.6651C44.9346 44.3577 44.3416 43.7661 44.3416 43.0342C44.3416 42.3023 44.9346 41.7107 45.6651 41.7107H50.0341C50.3848 41.7107 50.7224 41.8497 50.9699 42.0985L57.1004 48.2291C57.8416 48.9689 59.1294 48.9689 59.8693 48.2291C60.2398 47.8598 60.4437 47.3674 60.4437 46.8446C60.4437 46.3219 60.2398 45.8295 59.8706 45.4602L51.8169 37.4066C51.2994 36.8891 51.2994 36.0526 51.8169 35.5351C52.3344 35.0176 53.1709 35.0176 53.6884 35.5351L61.7421 43.5888C62.6116 44.457 63.0907 45.6138 63.0907 46.8446C63.0907 48.0755 62.6116 49.2323 61.7421 50.1005C60.8725 50.9701 59.7157 51.4505 58.4862 51.4505Z" fill="white"/>
<path d="M32.8123 58.5804H23.0036C22.2731 58.5804 21.6801 57.9888 21.6801 57.2569C21.6801 56.525 22.2731 55.9333 23.0036 55.9333H32.8123C33.5429 55.9333 34.1358 56.525 34.1358 57.2569C34.1358 57.9888 33.5429 58.5804 32.8123 58.5804Z" fill="white"/>
<path d="M50.7052 16.4472C47.5485 16.4472 44.9809 13.8796 44.9809 10.7229C44.9809 7.56632 47.5485 5 50.7052 5C53.8618 5 56.4294 7.56632 56.4294 10.7229C56.4294 13.8796 53.8618 16.4472 50.7052 16.4472ZM50.7052 7.64706C49.0084 7.64706 47.628 9.0275 47.628 10.7229C47.628 12.4184 49.0084 13.8001 50.7052 13.8001C52.4019 13.8001 53.7824 12.4197 53.7824 10.7229C53.7824 9.02618 52.4019 7.64706 50.7052 7.64706Z" fill="#54A9F7"/>
<path d="M68.3068 21.948C65.1502 21.948 62.5825 19.3803 62.5825 16.2237C62.5825 13.0671 65.1502 10.5007 68.3068 10.5007C71.4634 10.5007 74.031 13.0671 74.031 16.2237C74.031 19.3803 71.4634 21.948 68.3068 21.948ZM68.3068 13.1478C66.61 13.1478 65.2296 14.5283 65.2296 16.2237C65.2296 17.9191 66.61 19.3009 68.3068 19.3009C70.0035 19.3009 71.384 17.9205 71.384 16.2237C71.384 14.5269 70.0035 13.1478 68.3068 13.1478Z" fill="#54A9F7"/>
<path d="M50.7051 30.7494C49.9745 30.7494 49.3816 30.1578 49.3816 29.4259V15.1238C49.3816 14.3919 49.9745 13.8003 50.7051 13.8003C51.4357 13.8003 52.0287 14.3919 52.0287 15.1238V29.4259C52.0287 30.1578 51.4357 30.7494 50.7051 30.7494Z" fill="#54A9F7"/>
<path d="M57.3056 30.7478C56.575 30.7478 55.9821 30.1561 55.9821 29.4242V23.925C55.9821 23.5067 56.1793 23.1123 56.5154 22.8622L63.6135 17.5866C64.1998 17.1511 65.0297 17.2742 65.4651 17.8592C65.9006 18.4455 65.7788 19.2741 65.1925 19.7108L58.6278 24.5907V29.4242C58.6278 30.1561 58.0348 30.7478 57.3043 30.7478H57.3056Z" fill="#54A9F7"/>
<path d="M33.1035 21.948C29.9469 21.948 27.3793 19.3803 27.3793 16.2237C27.3793 13.0671 29.9469 10.5007 33.1035 10.5007C36.2602 10.5007 38.8278 13.0671 38.8278 16.2237C38.8278 19.3803 36.2602 21.948 33.1035 21.948ZM33.1035 13.1478C31.4068 13.1478 30.0263 14.5283 30.0263 16.2237C30.0263 17.9191 31.4068 19.3009 33.1035 19.3009C34.8003 19.3009 36.1807 17.9205 36.1807 16.2237C36.1807 14.5269 34.8003 13.1478 33.1035 13.1478Z" fill="#54A9F7"/>
<path d="M44.1048 30.7478C43.3742 30.7478 42.7812 30.1562 42.7812 29.4243V24.5987L36.0802 19.7188C35.4886 19.2887 35.3589 18.4602 35.789 17.8699C36.2192 17.2796 37.0477 17.1499 37.638 17.5787L44.8843 22.8543C45.2271 23.1031 45.4296 23.5015 45.4296 23.925V29.4243C45.4296 30.1562 44.8367 30.7478 44.1061 30.7478H44.1048Z" fill="#54A9F7"/>
<path d="M50.7052 94.9999C47.5485 94.9999 44.9809 92.4336 44.9809 89.277C44.9809 86.1204 47.5485 83.5527 50.7052 83.5527C53.8618 83.5527 56.4294 86.1204 56.4294 89.277C56.4294 92.4336 53.8618 94.9999 50.7052 94.9999ZM50.7052 86.1998C49.0084 86.1998 47.628 87.5802 47.628 89.277C47.628 90.9738 49.0084 92.3529 50.7052 92.3529C52.4019 92.3529 53.7824 90.9724 53.7824 89.277C53.7824 87.5816 52.4019 86.1998 50.7052 86.1998Z" fill="#54A9F7"/>
<path d="M68.3068 89.4982C65.1502 89.4982 62.5825 86.9319 62.5825 83.7753C62.5825 80.6187 65.1502 78.051 68.3068 78.051C71.4634 78.051 74.031 80.6187 74.031 83.7753C74.031 86.9319 71.4634 89.4982 68.3068 89.4982ZM68.3068 80.6981C66.61 80.6981 65.2296 82.0785 65.2296 83.7753C65.2296 85.4721 66.61 86.8512 68.3068 86.8512C70.0035 86.8512 71.384 85.4707 71.384 83.7753C71.384 82.0798 70.0035 80.6981 68.3068 80.6981Z" fill="#54A9F7"/>
<path d="M50.7051 86.1984C49.9745 86.1984 49.3816 85.6068 49.3816 84.8749V70.5728C49.3816 69.8409 49.9745 69.2493 50.7051 69.2493C51.4357 69.2493 52.0287 69.8409 52.0287 70.5728V84.8749C52.0287 85.6068 51.4357 86.1984 50.7051 86.1984Z" fill="#54A9F7"/>
<path d="M64.5678 82.5918C64.3018 82.5918 64.0331 82.5111 63.7988 82.3443L56.5353 77.1508C56.1872 76.9019 55.9821 76.5023 55.9821 76.0748V70.5755C55.9821 69.8436 56.575 69.252 57.3056 69.252C58.0362 69.252 58.6291 69.8436 58.6291 70.5755V75.3944L65.3394 80.1922C65.9337 80.6171 66.0713 81.443 65.6465 82.0399C65.3884 82.3999 64.9821 82.5931 64.5691 82.5931L64.5678 82.5918Z" fill="#54A9F7"/>
<path d="M33.1035 89.4982C29.9469 89.4982 27.3793 86.9319 27.3793 83.7753C27.3793 80.6187 29.9469 78.051 33.1035 78.051C36.2602 78.051 38.8278 80.6187 38.8278 83.7753C38.8278 86.9319 36.2602 89.4982 33.1035 89.4982ZM33.1035 80.6981C31.4068 80.6981 30.0263 82.0785 30.0263 83.7753C30.0263 85.4721 31.4068 86.8512 33.1035 86.8512C34.8003 86.8512 36.1807 85.4707 36.1807 83.7753C36.1807 82.0798 34.8003 80.6981 33.1035 80.6981Z" fill="#54A9F7"/>
<path d="M37.0251 82.5085C36.6135 82.5085 36.2098 82.3179 35.9504 81.9593C35.5229 81.3676 35.6566 80.5404 36.2495 80.1116L42.7824 75.3972V70.5743C42.7824 69.8423 43.3754 69.2507 44.106 69.2507C44.8366 69.2507 45.4295 69.8423 45.4295 70.5743V76.0735C45.4295 76.4984 45.2257 76.8981 44.8802 77.1469L37.7994 82.2571C37.5651 82.4265 37.2938 82.5072 37.0264 82.5072L37.0251 82.5085Z" fill="#54A9F7"/>
</svg>
