<svg width="100" height="100" viewBox="0 0 100 100" fill="none" xmlns="http://www.w3.org/2000/svg">
<path d="M78.4521 43.4655H78.4305C72.7773 43.3358 61.3088 39.6065 56.9094 34.2883C53.2019 29.8025 55.4394 24.0519 56.9094 20.247C57.2229 19.4471 57.4823 18.7661 57.6553 18.204C57.7634 17.8365 58.066 17.5555 58.4443 17.469C62.6815 16.4637 69.0806 14.9396 73.642 20.4416C75.7714 23.0142 76.0092 26.5164 76.2579 30.2348C76.5281 34.2019 76.8091 38.2986 79.3277 41.7468C79.5763 42.0819 79.6087 42.5251 79.4141 42.8818C79.2304 43.2385 78.8629 43.4655 78.4521 43.4655ZM58.5632 32.9156C61.9249 36.9799 70.7776 40.2984 76.3876 41.1199C74.5716 37.6393 74.323 33.8235 74.0852 30.3862C73.8474 26.8839 73.642 23.8573 71.9666 21.8252C68.6806 17.8473 64.3894 18.3121 59.5252 19.4363C59.3523 19.9227 59.1469 20.4524 58.9199 21.0361C57.5472 24.5707 55.6556 29.4133 58.5632 32.9156Z" fill="white"/>
<path d="M67.297 31.2296C66.9619 31.2296 66.6268 31.0782 66.4214 30.7756L54.4016 14.0211C53.5585 12.8429 52.2398 12.1619 50.7914 12.1619C49.3429 12.1619 48.0242 12.8429 47.1811 14.0211L42.3494 20.7553C42.0035 21.2417 41.3225 21.3498 40.8469 21.0039C40.3605 20.658 40.2524 19.977 40.5983 19.4906L45.43 12.7564C46.6839 11.0053 48.6403 10 50.8022 10C52.964 10 54.9205 11.0053 56.1743 12.7564L68.1941 29.5109C68.54 29.9973 68.4319 30.6675 67.9455 31.0134C67.751 31.1539 67.5348 31.2188 67.3186 31.2188L67.297 31.2296Z" fill="white"/>
<path d="M61.3411 89.9894C61.2438 89.9894 61.1357 89.9894 61.0384 89.9894C57.7092 89.9138 54.8988 87.7843 51.9263 85.5468C48.7592 83.1471 45.484 80.6718 41.2144 80.3259C40.8036 80.2934 40.4469 80.0232 40.2956 79.6449C40.1443 79.2666 40.2199 78.8234 40.501 78.5207C44.3058 74.3375 54.6286 68.1005 61.5356 68.2842C67.3509 68.4248 70.2262 73.8835 72.1286 77.4938C72.5285 78.2505 72.8744 78.899 73.1879 79.3963C73.3933 79.7205 73.4149 80.1313 73.2311 80.4772C71.2423 84.2821 68.2589 90.0002 61.3194 90.0002L61.3411 89.9894ZM43.6248 78.5099C47.4405 79.4287 50.4886 81.7311 53.2342 83.8065C56.0338 85.9251 58.455 87.7519 61.0924 87.8167C66.2917 87.914 68.7129 84.401 71.0585 79.9908C70.7991 79.5476 70.5397 79.0396 70.2478 78.4775C68.4751 75.1158 66.0647 70.5218 61.514 70.4137C56.2716 70.3164 47.9377 74.7915 43.6356 78.4991L43.6248 78.5099Z" fill="white"/>
<path d="M83.5432 81.2013H56.8121C56.2176 81.2013 55.7312 80.7149 55.7312 80.1204C55.7312 79.5259 56.2176 79.0394 56.8121 79.0394H83.5432C85.2402 79.0394 86.7211 78.1315 87.4993 76.6181C88.2776 75.1048 88.1479 73.3753 87.1534 71.9917L82.2785 65.1927C81.9326 64.7062 82.0407 64.0361 82.5271 63.6793C83.0135 63.3335 83.6837 63.4415 84.0296 63.928L88.9045 70.7271C90.3529 72.7484 90.5475 75.3859 89.4126 77.6018C88.2776 79.8177 86.0185 81.1905 83.5324 81.1905L83.5432 81.2013Z" fill="white"/>
<path d="M19.5096 68.3706C18.9367 68.3706 18.3855 68.3706 17.8666 68.349C17.0127 68.3382 16.2777 68.3166 15.694 68.349C15.3048 68.3706 14.9373 68.1869 14.732 67.8734C12.3215 64.2523 8.67882 58.7719 12.2783 52.589C13.9537 49.7029 17.164 48.2653 20.5689 46.7519C24.2008 45.1305 27.9516 43.4551 30.308 39.888C30.535 39.5421 30.9349 39.3584 31.3456 39.4124C31.7564 39.4665 32.1023 39.7475 32.232 40.1366C34.0587 45.4873 34.5344 57.5397 31.0646 63.5064C28.5137 67.895 23.4874 68.3706 19.5312 68.3706H19.5096ZM16.6019 66.1764C17.0019 66.1764 17.4342 66.1764 17.899 66.198C21.6931 66.2736 26.8923 66.3601 29.173 62.4255C31.8213 57.864 31.8753 48.4166 30.7079 42.8606C28.0705 45.7683 24.5683 47.3248 21.4336 48.7301C18.2233 50.1677 15.4562 51.4 14.1375 53.6807C11.5432 58.145 13.4565 62.0039 16.1912 66.1764C16.3209 66.1764 16.4614 66.1764 16.6019 66.1764Z" fill="white"/>
<path d="M25.1953 82.0119H16.6128C14.1267 82.0119 11.8676 80.6391 10.7326 78.4232C9.59768 76.2073 9.79225 73.5806 11.2407 71.5484L24.6657 52.8266C25.0116 52.3402 25.6926 52.2321 26.1682 52.578C26.6546 52.9239 26.7627 53.6049 26.4168 54.0914L12.9918 72.8131C11.9973 74.1967 11.8784 75.9262 12.6459 77.4395C13.4241 78.9529 14.905 79.8608 16.602 79.8608H25.1845C25.779 79.8608 26.2654 80.3473 26.2654 80.9418C26.2654 81.5363 25.779 82.0227 25.1845 82.0227L25.1953 82.0119Z" fill="white"/>
<path d="M56.5185 51.8974C56.2712 51.8974 56.0445 51.8053 55.8559 51.6272C55.8464 51.6194 55.8372 51.6105 55.8287 51.6013C55.5853 51.3548 55.4791 51.0544 55.5178 50.7292C55.6526 49.602 57.5448 48.3446 59.3077 47.2544L59.6419 47.0469C59.8312 46.9282 60.0811 46.962 60.2497 47.1312C60.4183 47.2997 60.4524 47.5492 60.3337 47.7384L60.1585 48.019C59.0361 49.8236 57.7465 51.7597 56.6402 51.8905C56.5992 51.8954 56.5588 51.8977 56.5188 51.8977L56.5185 51.8974ZM56.2922 51.1367C56.2945 51.1387 56.2968 51.141 56.2991 51.1433C56.3797 51.2226 56.4571 51.2508 56.5634 51.239C57.3762 51.143 58.715 49.0892 59.4271 47.9521C58.329 48.6348 56.2705 49.9613 56.1698 50.8069C56.1544 50.9338 56.1921 51.0354 56.2922 51.1367ZM59.9909 47.602L59.9893 47.603C59.9893 47.603 59.9903 47.6023 59.9909 47.602Z" fill="#54A9F7"/>
<path d="M56.7865 54.8884C54.4354 54.8884 52.5229 52.9765 52.5229 50.6267C52.5229 48.2769 54.4354 46.3647 56.7865 46.3647C57.2696 46.3647 57.7439 46.4451 58.1965 46.6034C58.3674 46.6634 58.4576 46.8503 58.3979 47.0211C58.3378 47.192 58.1515 47.2815 57.98 47.2225C57.5969 47.0884 57.1955 47.0205 56.7865 47.0205C54.7975 47.0205 53.1789 48.6382 53.1789 50.6267C53.1789 52.6152 54.7975 54.2326 56.7865 54.2326C58.7754 54.2326 60.3937 52.6149 60.3937 50.6267C60.3937 50.1877 60.316 49.7588 60.1621 49.3523C60.0982 49.1828 60.1834 48.9936 60.353 48.9297C60.5226 48.8657 60.7118 48.951 60.7758 49.1205C60.9575 49.6015 61.0497 50.1084 61.0497 50.6267C61.0497 52.9765 59.1372 54.8884 56.7865 54.8884Z" fill="#54A9F7"/>
<path d="M57.0875 64.0002H48.5598C48.3788 64.0002 48.2318 63.8536 48.2318 63.6723V63.2762C48.2318 62.4097 48.9367 61.7051 49.8032 61.7051H55.8438C56.7107 61.7051 57.4155 62.4097 57.4155 63.2762V63.6723C57.4155 63.8536 57.2689 64.0002 57.0875 64.0002ZM48.8878 63.3444H56.7595V63.2762C56.7595 62.7716 56.3486 62.3608 55.8438 62.3608H49.8032C49.2984 62.3608 48.8878 62.7716 48.8878 63.2762V63.3444Z" fill="#54A9F7"/>
<path d="M55.7746 62.3604C55.6886 62.3604 55.6034 62.3266 55.5387 62.2597C55.4948 62.2138 54.4606 61.1102 54.196 58.5568C54.1773 58.3768 54.3085 58.2158 54.4889 58.1968C54.665 58.1817 54.83 58.3092 54.849 58.4896C55.0881 60.7974 56.0042 61.7971 56.0137 61.8069C56.137 61.9384 56.1317 62.1456 56.0009 62.2699C55.9372 62.3302 55.8559 62.36 55.7749 62.36L55.7746 62.3604Z" fill="#54A9F7"/>
<path d="M49.8718 62.3606C49.7901 62.3606 49.7081 62.3301 49.6448 62.2695C49.5146 62.1446 49.5097 61.938 49.634 61.8072C49.6435 61.7973 50.5724 60.7836 50.8036 58.4406C50.8213 58.2606 50.983 58.1308 51.1621 58.1469C51.3425 58.1649 51.474 58.3252 51.4563 58.5055C51.2005 61.095 50.1529 62.2137 50.1086 62.26C50.0443 62.3268 49.958 62.361 49.8718 62.361V62.3606Z" fill="#54A9F7"/>
<path d="M61.6794 58.7541H43.9679C42.8826 58.7541 42 57.8718 42 56.7869V45.9672C42 44.8823 42.8826 44 43.9679 44H61.6794C62.7647 44 63.6473 44.8823 63.6473 45.9672V56.7869C63.6473 57.8718 62.7647 58.7541 61.6794 58.7541ZM43.9679 44.6557C43.2444 44.6557 42.656 45.2439 42.656 45.9672V56.7869C42.656 57.5102 43.2444 58.0984 43.9679 58.0984H61.6794C62.4029 58.0984 62.9913 57.5102 62.9913 56.7869V45.9672C62.9913 45.2439 62.4029 44.6557 61.6794 44.6557H43.9679Z" fill="#54A9F7"/>
<path d="M63.3193 56.7868H42.328C42.1469 56.7868 42 56.6403 42 56.459C42 56.2777 42.1469 56.1311 42.328 56.1311H63.3193C63.5007 56.1311 63.6473 56.2777 63.6473 56.459C63.6473 56.6403 63.5007 56.7868 63.3193 56.7868Z" fill="#54A9F7"/>
<path d="M44.9519 54.4916C44.7708 54.4916 44.6239 54.3447 44.6239 54.1637V50.1496C44.6239 49.9687 44.7708 49.8218 44.9519 49.8218C45.1329 49.8218 45.2799 49.9687 45.2799 50.1496V54.1637C45.2799 54.3447 45.1329 54.4916 44.9519 54.4916Z" fill="#54A9F7"/>
<path d="M44.9519 49.1663C44.7708 49.1663 44.6239 49.0194 44.6239 48.8385V46.9509C44.6239 46.7699 44.7708 46.623 44.9519 46.623C45.1329 46.623 45.2799 46.7699 45.2799 46.9509V48.8385C45.2799 49.0194 45.1329 49.1663 44.9519 49.1663Z" fill="#54A9F7"/>
<path d="M47.9038 54.4918C47.7227 54.4918 47.5758 54.3449 47.5758 54.1639V52.4446C47.5758 52.2636 47.7227 52.1167 47.9038 52.1167C48.0848 52.1167 48.2318 52.2636 48.2318 52.4446V54.1639C48.2318 54.3449 48.0848 54.4918 47.9038 54.4918Z" fill="#54A9F7"/>
<path d="M47.9038 51.4614C47.7227 51.4614 47.5758 51.3145 47.5758 51.1335V46.9509C47.5758 46.7699 47.7227 46.623 47.9038 46.623C48.0848 46.623 48.2318 46.7699 48.2318 46.9509V51.1335C48.2318 51.3145 48.0848 51.4614 47.9038 51.4614Z" fill="#54A9F7"/>
<path d="M45.6079 49.1662H44.2959C44.1149 49.1662 43.968 49.0194 43.968 48.8384C43.968 48.6574 44.1149 48.5105 44.2959 48.5105H45.6079C45.789 48.5105 45.9359 48.6574 45.9359 48.8384C45.9359 49.0194 45.789 49.1662 45.6079 49.1662Z" fill="#54A9F7"/>
<path d="M48.5598 52.7729H47.2478C47.0668 52.7729 46.9198 52.626 46.9198 52.4451C46.9198 52.2641 47.0668 52.1172 47.2478 52.1172H48.5598C48.7408 52.1172 48.8878 52.2641 48.8878 52.4451C48.8878 52.626 48.7408 52.7729 48.5598 52.7729Z" fill="#54A9F7"/>
</svg>
