<svg width="41" height="41" viewBox="0 0 41 41" fill="none" xmlns="http://www.w3.org/2000/svg">
<circle cx="20.1681" cy="20.1445" r="19.5" fill="#2F4AB7" stroke="#445EC6"/>
<path d="M32.1668 31.5667C32.1502 31.3325 31.9641 31.184 31.6794 31.2439C31.2485 31.3343 30.8034 31.4144 30.4034 31.5917C29.4809 32.0007 28.5858 32.0173 27.6699 31.5893C26.6084 31.0929 25.5356 31.0953 24.4741 31.5917C23.5678 32.016 22.6727 32.0154 21.7663 31.5911C20.7048 31.0941 19.632 31.0935 18.5705 31.5905C17.6641 32.0148 16.769 32.0166 15.8626 31.5924C14.8005 31.0959 13.7277 31.0929 12.6662 31.5887C11.7509 32.0166 10.8564 31.9989 9.93278 31.593C9.51852 31.4108 9.05671 31.3325 8.60976 31.2408C8.35954 31.1895 8.1854 31.3472 8.16935 31.5673C8.1533 31.7935 8.29119 31.9249 8.55389 31.9665C8.81897 32.0087 9.08643 32.0509 9.3426 32.1285C9.86325 32.2875 10.3768 32.4703 10.8933 32.6439C11.1625 32.6439 11.4323 32.6439 11.7016 32.6439C12.2175 32.474 12.7345 32.3089 13.2481 32.1322C13.9072 31.9054 14.5657 31.8999 15.2255 32.1163C15.7485 32.2881 16.2691 32.4678 16.791 32.6439C17.0602 32.6439 17.3301 32.6439 17.5993 32.6439C18.1152 32.4752 18.6329 32.3126 19.1464 32.1359C19.8293 31.9005 20.5069 31.9011 21.1898 32.1359C21.7033 32.3126 22.221 32.4752 22.7368 32.6439C22.9906 32.6439 23.2444 32.6439 23.4976 32.6439C24.0135 32.4764 24.533 32.3174 25.0453 32.1395C25.7282 31.9023 26.4058 31.9005 27.0887 32.1334C27.6022 32.3089 28.1193 32.4746 28.6346 32.6445C28.9038 32.6445 29.1737 32.6445 29.4429 32.6445C29.8643 32.5119 30.2839 32.3737 30.7077 32.2484C31.0554 32.1456 31.4042 32.0429 31.7591 31.9714C32.0396 31.9139 32.1834 31.799 32.1668 31.5667Z" fill="white"/>
<path d="M8.57945 30.3818C9.03532 30.402 9.43888 30.5799 9.84957 30.7548C10.8178 31.1656 11.7895 31.1583 12.7619 30.7597C13.0335 30.6484 13.3016 30.5145 13.5845 30.4503C14.3375 30.2797 15.0501 30.4246 15.755 30.7462C16.7203 31.1864 17.7205 31.1925 18.6822 30.7431C19.6872 30.2736 20.6531 30.2761 21.6575 30.7438C22.6108 31.187 23.5939 31.1613 24.5668 30.7639C24.8385 30.6533 25.1065 30.5188 25.3888 30.4546C26.1407 30.284 26.8545 30.4124 27.5594 30.7413C28.5056 31.1821 29.4839 31.1662 30.4456 30.7737C30.8806 30.5958 31.3026 30.402 31.7828 30.3782C32.0438 30.3653 32.1781 30.1874 32.1537 29.9679C32.1299 29.757 31.9724 29.6158 31.7216 29.6635C31.2895 29.746 30.8521 29.8353 30.4414 29.9905C30.0069 30.155 29.5832 30.3195 29.113 30.3182C28.694 30.317 28.2797 30.295 27.891 30.0871C27.9273 29.993 27.9552 29.9172 27.9861 29.8426C29.0976 27.1415 30.2096 24.4398 31.3216 21.7388C31.6206 21.0131 31.4233 20.524 30.7083 20.2213C29.9404 19.8961 29.1725 19.5696 28.4022 19.2499C28.272 19.1961 28.2066 19.1319 28.1906 18.976C28.1086 18.1757 28.0129 17.3766 27.919 16.5775C27.8881 16.3146 27.7294 16.1667 27.519 16.1924C27.3163 16.2168 27.1927 16.3837 27.2099 16.635C27.2242 16.8459 27.2557 17.055 27.2795 17.2653C27.3371 17.7801 27.3948 18.2949 27.456 18.839C27.3508 18.7974 27.2777 18.7699 27.2058 18.74C24.974 17.7972 22.741 16.8563 20.5116 15.9068C20.2751 15.806 20.0694 15.8017 19.8311 15.9044C18.3565 16.5378 16.8772 17.1589 15.399 17.7838C14.5735 18.1329 13.7473 18.4801 12.8873 18.8427C12.895 18.7247 12.8968 18.6525 12.9051 18.5804C13.1078 16.7958 13.3128 15.0112 13.5125 13.226C13.5809 12.6127 13.7818 12.4183 14.3845 12.4183C18.237 12.4183 22.0896 12.4183 25.9422 12.4189C26.0373 12.4189 26.133 12.4189 26.2269 12.4299C26.5003 12.4611 26.697 12.6311 26.7665 12.9044C26.7986 13.0297 26.8111 13.1605 26.8266 13.2895C26.889 13.8141 26.9454 14.3393 27.0114 14.8638C27.0453 15.1322 27.2028 15.2686 27.4179 15.2368C27.6212 15.2068 27.7448 15.0295 27.7175 14.785C27.6462 14.1467 27.579 13.5078 27.4916 12.872C27.4209 12.3572 27.1398 11.9806 26.6673 11.7953C26.4593 11.714 26.2203 11.6987 25.9939 11.6889C25.6248 11.6724 25.2551 11.6847 24.8688 11.6847C24.8688 11.2909 24.87 10.9339 24.8688 10.5762C24.8664 9.85909 24.5122 9.49104 23.818 9.48799C23.1838 9.48554 22.5496 9.4831 21.9155 9.49043C21.7585 9.49227 21.7062 9.43847 21.7116 9.28012C21.7205 9.00378 21.7205 8.72682 21.7116 8.45048C21.695 7.94365 21.4043 7.65202 20.9158 7.64774C20.4165 7.64346 19.9167 7.64346 19.4174 7.64774C18.939 7.65202 18.6459 7.93876 18.6251 8.42908C18.6138 8.69687 18.6097 8.96648 18.6257 9.23427C18.6376 9.44152 18.5645 9.49532 18.3696 9.49166C17.7277 9.48004 17.0852 9.48126 16.4433 9.48921C15.8483 9.49655 15.4858 9.87071 15.468 10.4815C15.462 10.6765 15.4668 10.8721 15.4668 11.0672C15.4668 11.2665 15.4668 11.4664 15.4668 11.6914C14.9859 11.6914 14.5426 11.6761 14.101 11.6951C13.4543 11.7232 12.9503 12.1958 12.8463 12.8512C12.8059 13.108 12.7803 13.3672 12.7506 13.6258C12.5473 15.4025 12.3417 17.1785 12.1485 18.9564C12.1289 19.1355 12.0516 19.2028 11.9084 19.2621C11.1381 19.5818 10.3702 19.9077 9.60233 20.2336C8.92001 20.5227 8.71853 21.0253 9.005 21.7217C10.1164 24.4233 11.2285 27.1244 12.3399 29.8255C12.3756 29.9117 12.4065 30.0003 12.4445 30.1012C12.3435 30.1403 12.265 30.1795 12.1818 30.2015C11.4799 30.3873 10.7857 30.3812 10.1135 30.0761C9.64036 29.8615 9.1631 29.6714 8.63591 29.6586C8.35776 29.6518 8.20442 29.7521 8.18183 29.9716C8.15865 30.1966 8.30189 30.3696 8.57945 30.3818ZM19.3526 8.39607C19.8911 8.39607 20.4254 8.39607 20.9788 8.39607C20.9788 8.75067 20.9788 9.10282 20.9788 9.47026C20.4355 9.47026 19.9012 9.47026 19.3526 9.47026C19.3526 9.10832 19.3526 8.76106 19.3526 8.39607ZM16.1818 10.4925C16.1824 10.317 16.2608 10.2168 16.4409 10.2192C16.4962 10.2198 16.5521 10.2186 16.6073 10.2186C18.9847 10.2186 21.3621 10.2186 23.7395 10.2186C24.1324 10.2186 24.155 10.243 24.1556 10.6496C24.1556 10.9816 24.1556 11.3136 24.1556 11.6645C21.4941 11.6645 18.8528 11.6645 16.1812 11.6645C16.1812 11.2561 16.1806 10.8746 16.1818 10.4925ZM10.1467 22.6069C10.5236 22.4541 10.882 22.308 11.2404 22.1625C11.3141 22.1325 11.3895 22.108 11.4614 22.0732C11.6802 21.9674 11.7664 21.773 11.6849 21.5774C11.61 21.3958 11.4169 21.3151 11.2035 21.3952C10.8398 21.5321 10.4802 21.6819 10.1188 21.8256C10.0457 21.8549 9.97142 21.8824 9.868 21.9222C9.77825 21.7015 9.6784 21.493 9.60886 21.2735C9.54467 21.0705 9.68672 20.9868 9.8466 20.9201C10.7185 20.5545 11.588 20.184 12.4588 19.816C14.9544 18.7626 17.4507 17.711 19.9446 16.6527C20.1045 16.5849 20.2334 16.5861 20.3927 16.6539C23.7282 18.0675 27.0661 19.4748 30.4034 20.8835C30.7873 21.0455 30.8093 21.1017 30.6423 21.5034C30.587 21.6367 30.5305 21.77 30.4658 21.9228C30.1817 21.8103 29.91 21.7045 29.639 21.5957C26.5966 20.3705 23.5535 19.1471 20.514 17.9158C20.2768 17.8198 20.07 17.8137 19.8317 17.9103C17.5434 18.8396 15.251 19.7591 12.9604 20.6823C12.6181 20.8205 12.4956 20.9911 12.5753 21.2179C12.6591 21.4569 12.8701 21.5071 13.2207 21.3658C15.4674 20.461 17.7134 19.5543 19.9624 18.6562C20.0748 18.6116 20.2311 18.6006 20.3404 18.644C23.5547 19.9303 26.7659 21.2252 29.9772 22.5195C30.042 22.5458 30.1044 22.577 30.1852 22.6143C29.1956 25.02 28.2114 27.4118 27.2266 29.8071C26.382 29.5766 25.5648 29.5785 24.7564 29.8811C24.4082 30.0113 24.067 30.1807 23.708 30.2577C23.1012 30.3879 22.4902 30.3519 21.9202 30.0688C21.0596 29.6408 20.1651 29.5296 19.2397 29.7613C18.9425 29.8359 18.6614 29.9765 18.3743 30.092C17.6106 30.3983 16.8302 30.4417 16.0855 30.0933C15.1226 29.6427 14.1515 29.5106 13.1102 29.8102C12.1241 27.4124 11.1399 25.0207 10.1467 22.6069Z" fill="white"/>
<path d="M21.2712 13.0756C20.5342 13.0682 19.7966 13.0682 19.0596 13.0756C18.6822 13.0798 18.4355 13.3317 18.4237 13.7193C18.413 14.077 18.4112 14.4359 18.4248 14.7929C18.4391 15.1707 18.6858 15.4067 19.0531 15.4122C19.4257 15.4171 19.7984 15.4135 20.1704 15.4135C20.5348 15.4135 20.8997 15.4165 21.2641 15.4128C21.6569 15.4086 21.9012 15.1677 21.9125 14.7636C21.922 14.4224 21.9214 14.08 21.9125 13.7383C21.903 13.3354 21.6593 13.0792 21.2712 13.0756ZM21.1874 14.6694C20.5039 14.6694 19.8352 14.6694 19.1511 14.6694C19.1511 14.3876 19.1511 14.1155 19.1511 13.8251C19.8269 13.8251 20.4944 13.8251 21.1874 13.8251C21.1874 14.1143 21.1874 14.3857 21.1874 14.6694Z" fill="white"/>
<path d="M17.0828 13.0768C16.3298 13.0664 15.5767 13.0664 14.8243 13.0774C14.4593 13.0829 14.2234 13.3439 14.218 13.7187C14.2127 14.0684 14.2127 14.4181 14.2174 14.7678C14.2228 15.1591 14.4623 15.4067 14.8415 15.4122C15.2142 15.4177 15.5862 15.4135 15.9589 15.4135C16.3232 15.4135 16.6882 15.4165 17.0525 15.4128C17.4471 15.4086 17.6908 15.1622 17.6962 14.763C17.7003 14.4212 17.7003 14.0794 17.6962 13.7377C17.692 13.347 17.4572 13.0817 17.0828 13.0768ZM16.9699 14.6645C16.3006 14.6645 15.6338 14.6645 14.9431 14.6645C14.9431 14.3784 14.9431 14.1069 14.9431 13.8208C15.6225 13.8208 16.2893 13.8208 16.9699 13.8208C16.9699 14.1039 16.9699 14.376 16.9699 14.6645Z" fill="white"/>
<path d="M25.5119 13.0774C24.7588 13.0664 24.0058 13.067 23.2533 13.0768C22.8795 13.0817 22.6441 13.3476 22.6394 13.7377C22.6352 14.0794 22.6346 14.4212 22.6394 14.763C22.6447 15.1622 22.8896 15.4086 23.2837 15.4128C23.648 15.4165 24.0129 15.4135 24.3773 15.4135C24.7416 15.4135 25.1065 15.4135 25.4709 15.4135C25.4869 15.4135 25.5024 15.4135 25.5184 15.4128C25.8691 15.3988 26.111 15.1542 26.1175 14.7923C26.124 14.4346 26.1235 14.0764 26.1181 13.7187C26.1128 13.3439 25.8774 13.0823 25.5119 13.0774ZM25.393 14.6657C24.7202 14.6657 24.0527 14.6657 23.3663 14.6657C23.3663 14.376 23.3663 14.1045 23.3663 13.8208C24.0468 13.8208 24.7131 13.8208 25.393 13.8208C25.393 14.1063 25.393 14.3784 25.393 14.6657Z" fill="white"/>
</svg>
