<svg width="214" height="38" viewBox="0 0 214 38" fill="none" xmlns="http://www.w3.org/2000/svg">
<g clip-path="url(#clip0_76_4026)">
<path d="M69.369 29.6678C68.172 29.6678 67.1521 28.816 66.975 27.6689L65.091 15.538L58.674 29.1114C58.5252 29.4274 58.1994 29.6334 57.8382 29.6334C57.477 29.6334 57.1512 29.4274 57.0024 29.1114L50.5854 15.538L49.1334 24.8594L48.2197 30.7325L47.4548 35.6508C47.2565 36.9078 46.1445 37.842 44.8342 37.842C43.1909 37.842 41.9444 36.4064 42.2206 34.8334L43.0705 30.0112L44.1825 23.7329L46.4915 10.6403C46.7607 9.12909 48.1064 8.03003 49.6859 8.03003C50.9679 8.03003 52.1294 8.76503 52.6536 9.9053L57.824 21.2943L63.0299 9.89156C63.5469 8.76503 64.6943 8.0369 65.9693 8.0369C67.5558 8.0369 68.9015 9.15657 69.1424 10.6746L71.7559 26.9682C71.9896 28.3832 70.8564 29.6678 69.369 29.6678Z" fill="white"/>
<path d="M90.2067 12.9415C91.3116 12.9415 92.204 13.807 92.204 14.8785V27.6757C92.204 28.7611 91.2974 29.6334 90.1854 29.6334H90.1146C89.1868 29.6334 88.3793 29.0221 88.1527 28.1497C86.5803 29.4686 84.7175 30.128 82.5714 30.128C79.9791 30.128 77.8259 29.29 76.119 27.607C74.4049 25.931 73.555 23.8222 73.555 21.2874C73.555 18.7733 74.412 16.6783 76.119 15.0091C77.8259 13.3399 79.9791 12.5018 82.5714 12.5018C84.76 12.5018 86.6369 13.1819 88.2093 14.542L88.2872 14.3015C88.5564 13.4979 89.3284 12.9415 90.2067 12.9415ZM79.6037 24.564C80.482 25.4295 81.6011 25.8623 82.9539 25.8623C84.2996 25.8623 85.4258 25.4295 86.3182 24.564C87.2107 23.6985 87.6569 22.6063 87.6569 21.2874C87.6569 19.9686 87.2107 18.8764 86.3182 18.0109C85.4258 17.1454 84.3138 16.7126 82.968 16.7126C82.0756 16.7126 81.2753 16.9118 80.5599 17.3171C79.8445 17.7155 79.2921 18.265 78.8883 18.9588C78.4846 19.6526 78.2863 20.4288 78.2863 21.2943C78.2792 22.6063 78.7184 23.6985 79.6037 24.564Z" fill="white"/>
<path d="M104.046 12.8796C104.889 12.8796 105.576 13.5459 105.576 14.3634V15.6616C105.576 16.4791 104.889 17.1454 104.046 17.1454H103.572C102.255 17.1454 101.312 17.4476 100.753 18.0452C100.186 18.6428 99.9101 19.6183 99.9101 20.9783V27.4078C99.9101 28.6512 98.8689 29.6678 97.5799 29.6678C96.2979 29.6678 95.2496 28.658 95.2496 27.4078V14.7C95.2496 13.7451 96.05 12.9689 97.0345 12.9689C97.764 12.9689 98.4227 13.4017 98.6918 14.0611L99.0743 15.0091C100.243 13.594 101.9 12.8796 104.046 12.8796Z" fill="white"/>
<path d="M108.176 27.4078V15.2289C108.176 13.9856 109.217 12.9689 110.506 12.9689C111.788 12.9689 112.836 13.9787 112.836 15.2289V27.4078C112.836 28.6511 111.795 29.6678 110.506 29.6678C109.217 29.6678 108.176 28.658 108.176 27.4078Z" fill="white"/>
<path d="M125.741 12.5705C127.696 12.5705 129.24 13.2025 130.38 14.4732C131.514 15.744 132.087 17.4338 132.087 19.5564V27.4078C132.087 28.6511 131.046 29.6609 129.764 29.6609C128.482 29.6609 127.441 28.6511 127.441 27.4078V20.2639C127.441 17.7704 126.442 16.5271 124.445 16.5271C123.659 16.5271 122.972 16.7057 122.391 17.056C121.803 17.4064 121.357 17.9147 121.052 18.5741C120.741 19.2335 120.592 20.0098 120.592 20.8959V27.4147C120.592 28.658 119.551 29.6746 118.262 29.6746C116.98 29.6746 115.931 28.6649 115.931 27.4147V14.8442C115.931 13.8138 116.796 12.9758 117.858 12.9758C118.623 12.9758 119.317 13.4154 119.622 14.1023L120.047 15.0503C120.365 14.6587 120.734 14.3153 121.144 14.013C121.555 13.7176 122.008 13.4566 122.497 13.2437C122.986 13.0307 123.503 12.8659 124.041 12.7491C124.58 12.6323 125.146 12.5705 125.741 12.5705Z" fill="white"/>
<path d="M166.319 25.3059H172.962C174.202 25.3059 175.207 26.2813 175.207 27.4834C175.207 28.6855 174.202 29.6609 172.962 29.6609H163.45C162.359 29.6609 161.474 28.8022 161.474 27.7444V9.96709C161.474 8.89551 162.373 8.02313 163.478 8.02313H172.629C173.862 8.02313 174.86 8.99168 174.86 10.1869C174.86 11.3821 173.862 12.3507 172.629 12.3507H166.319V16.6164H171.85C173.054 16.6164 174.032 17.5643 174.032 18.7321C174.032 19.8998 173.054 20.8478 171.85 20.8478H166.319V25.3059Z" fill="url(#paint0_linear_76_4026)"/>
<path d="M206.096 8.03C208.348 8.03 210.225 8.73752 211.734 10.1457C213.242 11.5607 214 13.3261 214 15.4624C214 17.5987 213.242 19.3709 211.734 20.7791C210.225 22.1941 208.341 22.8948 206.096 22.8948H202.37V27.3116C202.37 28.6099 201.286 29.6609 199.948 29.6609C198.609 29.6609 197.525 28.6099 197.525 27.3116V10.4205C197.525 9.10158 198.63 8.02313 199.997 8.02313H206.096V8.03ZM205.904 18.5672C206.861 18.5672 207.633 18.2787 208.213 17.7017C208.801 17.1247 209.092 16.3829 209.092 15.4761C209.092 14.5694 208.801 13.8207 208.213 13.2368C207.626 12.6529 206.861 12.3575 205.904 12.3575H203.765C202.993 12.3575 202.363 12.9689 202.363 13.7176V18.5741H205.904V18.5672Z" fill="url(#paint1_linear_76_4026)"/>
<path d="M110.506 11.8973C112.071 11.8973 113.339 10.6672 113.339 9.14969C113.339 7.6322 112.071 6.40204 110.506 6.40204C108.941 6.40204 107.673 7.6322 107.673 9.14969C107.673 10.6672 108.941 11.8973 110.506 11.8973Z" fill="white"/>
<path d="M151.636 21.2599C151.636 19.6732 151.268 18.21 150.538 16.8706C149.801 15.5311 148.753 14.4732 147.379 13.6833C146.005 12.9002 144.461 12.5087 142.74 12.5087C141.72 12.5087 140.75 12.6529 139.843 12.9414C138.929 13.2299 138.108 13.6352 137.392 14.1641C136.67 14.6862 136.04 15.3113 135.494 16.0325C134.949 16.7538 134.538 17.5712 134.255 18.4779C133.964 19.3847 133.823 20.3326 133.823 21.3218C133.823 23.8152 134.673 25.9103 136.372 27.5933C138.072 29.2831 140.197 30.128 142.747 30.128C144.744 30.128 146.508 29.5922 148.038 28.5206C148.42 28.2527 148.781 27.9573 149.107 27.6414C150.418 26.3774 149.405 24.1931 147.556 24.1931H147.315C146.763 24.1931 146.253 24.4541 145.878 24.8456C145.594 25.141 145.261 25.3951 144.879 25.5944C144.241 25.9378 143.526 26.1027 142.74 26.1027C141.592 26.1027 140.65 25.8004 139.921 25.1891C139.468 24.8181 138.129 24.0145 138.221 20.7997C138.285 18.6428 139.638 17.5369 140.112 17.1659C140.82 16.6095 141.699 16.3348 142.74 16.3348C143.42 16.3348 144.043 16.4584 144.603 16.7057C145.162 16.953 145.651 17.3102 146.055 17.7704C146.458 18.2375 146.763 18.8077 146.982 19.4877H141.925C141.047 19.4877 140.332 20.1815 140.332 21.0333C140.332 21.885 141.047 22.5788 141.925 22.5788H150.233C150.991 22.5788 151.636 21.9949 151.643 21.2599C151.636 21.2668 151.636 21.2599 151.636 21.2599Z" fill="white"/>
<path d="M190.62 21.4729C191.873 20.8959 192.865 20.051 193.587 18.9382C194.31 17.8254 194.671 16.5821 194.671 15.2014C194.671 13.8207 194.338 12.5843 193.665 11.4921C192.992 10.3999 192.065 9.54811 190.875 8.94362C189.685 8.33914 188.36 8.03003 186.894 8.03003H180.18C178.905 8.03003 177.878 9.03292 177.878 10.2625V27.3185C177.878 28.6168 178.961 29.6678 180.3 29.6678C181.639 29.6678 182.722 28.6168 182.722 27.3185V25.6081V17.2347V12.3576H186.575C187.234 12.3576 187.808 12.4744 188.297 12.7148C188.785 12.9552 189.154 13.2849 189.409 13.7039C189.663 14.1298 189.791 14.6175 189.791 15.1739C189.791 15.9982 189.501 16.6714 188.913 17.1797C188.325 17.6949 187.546 17.949 186.568 17.949H185.768C184.677 17.949 183.983 19.0824 184.514 20.0098L185.81 22.2835L195.457 36.9353C195.889 37.5947 196.64 37.9932 197.447 37.9932C199.324 37.9932 200.451 35.9668 199.417 34.4487L190.62 21.4729Z" fill="url(#paint2_linear_76_4026)"/>
<path d="M0 28.3626C0.325809 27.662 0.913682 27.5177 1.64321 27.607C2.56398 27.7169 3.35017 28.1016 4.08678 28.6031C4.68882 29.0083 5.36169 29.0839 6.06289 28.9328C6.2612 28.8916 6.45952 28.816 6.62951 28.7198C7.18197 28.4176 7.72734 28.0947 8.30814 27.7582C7.95399 26.8514 7.58569 25.9104 7.21738 24.9762C6.57993 23.355 5.94248 21.7408 5.31211 20.1197C4.97921 19.261 5.18462 18.7939 6.04872 18.4505C7.09697 18.0315 8.14523 17.5987 9.20057 17.2003C9.44847 17.1041 9.51221 16.9805 9.51221 16.7332C9.50513 13.2712 9.50513 9.816 9.50513 6.35396C9.50513 5.48158 9.90885 5.08317 10.8084 5.08317C11.807 5.08317 12.8128 5.08317 13.8611 5.08317C13.8611 4.93892 13.8611 4.81528 13.8611 4.69163C13.8611 3.53075 13.8611 2.36987 13.8611 1.20899C13.8611 0.432777 14.2931 0.0206299 15.1005 0.0206299C17.4237 0.0206299 19.7469 0.0206299 22.063 0.0206299C22.8633 0.0206299 23.2883 0.439646 23.2954 1.21586C23.2954 2.363 23.2954 3.51701 23.2954 4.66416C23.2954 4.7878 23.2954 4.91831 23.2954 5.08317C23.9328 5.08317 24.549 5.08317 25.1581 5.08317C25.5689 5.08317 25.9797 5.08317 26.3905 5.08317C27.2192 5.08317 27.6442 5.49532 27.6442 6.29214C27.6442 9.74044 27.6513 13.1887 27.6371 16.637C27.6371 16.9736 27.7504 17.1247 28.0621 17.2415C29.0962 17.6331 30.1232 18.0521 31.1431 18.4642C31.9364 18.7802 32.163 19.2817 31.8514 20.0647C30.8456 22.6338 29.8328 25.2097 28.82 27.7719C29.4574 28.1291 30.0665 28.5412 30.7323 28.8297C31.5185 29.1732 32.3118 29.0908 33.0484 28.6168C33.6575 28.2321 34.2595 27.8406 34.9962 27.7169C35.3503 27.6551 35.7115 27.6139 36.0728 27.6139C36.6677 27.6139 37.1281 28.081 37.1423 28.6443C37.1493 29.2007 36.7031 29.7021 36.1082 29.709C35.4849 29.7159 34.9607 29.9219 34.4579 30.2516C32.6093 31.4537 30.7465 31.4606 28.9049 30.2516C27.8284 29.5441 26.7872 29.5373 25.7106 30.2448C23.8691 31.4537 21.9992 31.4537 20.1577 30.2516C19.074 29.5441 18.0399 29.5373 16.9633 30.2516C15.1218 31.4606 13.2519 31.4606 11.4104 30.2516C10.3267 29.5441 9.29265 29.5441 8.21606 30.2516C6.37453 31.4469 4.50467 31.4263 2.64897 30.2104C2.16734 29.8945 1.65738 29.6952 1.06242 29.6952C0.524128 29.6952 0.22665 29.3518 0 28.9259C0 28.7404 0 28.555 0 28.3626ZM11.7008 7.19886C11.7008 10.1869 11.7008 13.1613 11.7008 16.1631C11.8495 16.1081 11.9699 16.0669 12.0904 16.0188C14.031 15.2426 15.9788 14.4801 17.9124 13.6902C18.3728 13.5047 18.7765 13.4979 19.2369 13.6833C21.1705 14.4733 23.1183 15.2426 25.059 16.012C25.1865 16.06 25.314 16.1081 25.4415 16.1562C25.4415 13.1338 25.4415 10.1663 25.4415 7.19886C20.8518 7.19886 16.2834 7.19886 11.7008 7.19886ZM19.676 27.607C20.271 27.9161 20.8022 28.184 21.3334 28.4588C21.6521 28.6168 21.9567 28.8297 22.2967 28.919C22.9979 29.1045 23.6849 29.0152 24.3082 28.6099C24.9032 28.2253 25.4981 27.8337 26.2206 27.7169C26.4897 27.6757 26.5959 27.5383 26.6809 27.3117C27.453 25.3334 28.2321 23.355 29.0112 21.3767C29.1741 20.9508 29.337 20.5318 29.5141 20.0853C26.2206 18.7733 22.9625 17.4682 19.676 16.1562C19.676 20.0441 19.676 23.8634 19.676 27.607ZM17.4804 16.1562C14.1869 17.4682 10.9288 18.7733 7.67777 20.0716C7.67777 20.1197 7.67777 20.1334 7.67777 20.1403C8.63394 22.5926 9.59012 25.0449 10.5463 27.4903C10.5746 27.5658 10.6667 27.6482 10.7375 27.662C11.545 27.7994 12.2108 28.2253 12.8907 28.6374C13.6911 29.1251 14.5339 29.1457 15.3697 28.7198C16.0709 28.3626 16.7508 27.978 17.4804 27.5796C17.4804 23.8428 17.4804 20.0235 17.4804 16.1562ZM21.1139 2.13632C19.4069 2.13632 17.7354 2.13632 16.0709 2.13632C16.0709 3.12547 16.0709 4.08715 16.0709 5.04196C17.7708 5.04196 19.4423 5.04196 21.1139 5.04196C21.1139 4.05967 21.1139 3.11174 21.1139 2.13632Z" fill="url(#paint3_linear_76_4026)"/>
<path d="M0 33.2946C0.325809 32.594 0.913682 32.4497 1.64321 32.539C2.56398 32.6489 3.35017 33.0336 4.08678 33.5282C4.70298 33.9403 5.39002 34.0365 6.09122 33.8442C6.45244 33.748 6.7995 33.5419 7.11822 33.3427C8.9385 32.2093 10.7517 32.2024 12.5507 33.3633C13.2661 33.8235 14.0098 34.0777 14.8385 33.8373C15.2351 33.7274 15.6034 33.5007 15.9576 33.274C17.1546 32.5184 18.4436 32.3123 19.8035 32.6764C20.3277 32.8138 20.8447 33.0679 21.2909 33.3702C22.41 34.1052 23.4653 34.0983 24.5844 33.3633C26.4047 32.175 28.2533 32.1956 30.0736 33.3771C31.1644 34.0914 32.2197 34.1189 33.2963 33.3771C34.0966 32.8275 34.9749 32.5115 35.9665 32.5115C36.6394 32.5115 37.1352 32.9374 37.1493 33.5419C37.1635 34.1464 36.6889 34.5654 36.0161 34.6341C35.6194 34.6753 35.1803 34.744 34.8474 34.9432C34.04 35.4241 33.2325 35.8774 32.2834 36.0354C31.8726 36.0354 31.4618 36.0354 31.051 36.0354C30.109 35.8705 29.3087 35.4103 28.5012 34.9295C27.7363 34.4761 26.8863 34.4692 26.1214 34.9226C25.314 35.4034 24.5136 35.8637 23.5716 36.0354C23.1608 36.0354 22.75 36.0354 22.3392 36.0354C22.1904 36.0011 22.0346 35.9598 21.8859 35.9324C21.1493 35.7881 20.5331 35.3966 19.9098 35.0119C19.0882 34.5036 18.2099 34.4418 17.3741 34.9226C16.5525 35.3966 15.7522 35.8774 14.7889 36.0285C14.3781 36.0285 13.9673 36.0285 13.5565 36.0285C12.6145 35.8637 11.8141 35.4034 11.0067 34.9226C10.2417 34.4692 9.3918 34.4692 8.62686 34.9226C7.81942 35.4034 7.01906 35.8637 6.07705 36.0285C5.66625 36.0285 5.25544 36.0285 4.84464 36.0285C3.89554 35.8843 3.08102 35.4309 2.28775 34.9363C2.0186 34.7646 1.65738 34.6478 1.33865 34.6478C0.708281 34.6478 0.269147 34.4074 0 33.8579C0 33.6656 0 33.4801 0 33.2946Z" fill="#3CA3FF"/>
<path d="M15.313 10.3587C15.3059 10.9288 14.8101 11.4028 14.2223 11.4028C13.6202 11.4028 13.1244 10.9013 13.1386 10.3174C13.1528 9.7473 13.6627 9.2802 14.2506 9.29394C14.8385 9.30767 15.3201 9.78851 15.313 10.3587Z" fill="url(#paint4_linear_76_4026)"/>
<path d="M18.5853 11.4027C17.9974 11.4027 17.5016 10.9287 17.4945 10.3586C17.4874 9.77473 17.9903 9.28703 18.5924 9.29389C19.1802 9.30076 19.6689 9.7816 19.6689 10.3517C19.6619 10.9219 19.1731 11.3958 18.5853 11.4027Z" fill="url(#paint5_linear_76_4026)"/>
<path d="M24.0178 10.3587C24.0107 10.9288 23.5149 11.4028 22.927 11.4028C22.325 11.4028 21.8292 10.9013 21.8434 10.3174C21.8575 9.7473 22.3675 9.2802 22.9554 9.29394C23.5432 9.30767 24.0249 9.78851 24.0178 10.3587Z" fill="url(#paint6_linear_76_4026)"/>
</g>
<defs>
<linearGradient id="paint0_linear_76_4026" x1="168.341" y1="8.02313" x2="168.341" y2="29.6609" gradientUnits="userSpaceOnUse">
<stop stop-color="#6DC2FF"/>
<stop offset="1" stop-color="#39A0FF"/>
</linearGradient>
<linearGradient id="paint1_linear_76_4026" x1="205.763" y1="8.02313" x2="205.763" y2="29.6609" gradientUnits="userSpaceOnUse">
<stop stop-color="#6DC2FF"/>
<stop offset="1" stop-color="#39A0FF"/>
</linearGradient>
<linearGradient id="paint2_linear_76_4026" x1="188.844" y1="8.03003" x2="188.844" y2="37.9932" gradientUnits="userSpaceOnUse">
<stop stop-color="#6DC2FF"/>
<stop offset="1" stop-color="#39A0FF"/>
</linearGradient>
<linearGradient id="paint3_linear_76_4026" x1="18.5712" y1="0.0206299" x2="18.5712" y2="31.1584" gradientUnits="userSpaceOnUse">
<stop stop-color="#6DDCFF"/>
<stop offset="1" stop-color="#39A0FF"/>
</linearGradient>
<linearGradient id="paint4_linear_76_4026" x1="14.2257" y1="9.29364" x2="14.2257" y2="11.4028" gradientUnits="userSpaceOnUse">
<stop stop-color="#6DE5FF"/>
<stop offset="1" stop-color="#39A0FF"/>
</linearGradient>
<linearGradient id="paint5_linear_76_4026" x1="18.5817" y1="9.29382" x2="18.5817" y2="11.4027" gradientUnits="userSpaceOnUse">
<stop stop-color="#6DE5FF"/>
<stop offset="1" stop-color="#39A0FF"/>
</linearGradient>
<linearGradient id="paint6_linear_76_4026" x1="22.9305" y1="9.29364" x2="22.9305" y2="11.4028" gradientUnits="userSpaceOnUse">
<stop stop-color="#6DE5FF"/>
<stop offset="1" stop-color="#39A0FF"/>
</linearGradient>
<clipPath id="clip0_76_4026">
<rect width="214" height="38" fill="white"/>
</clipPath>
</defs>
</svg>
