<svg xmlns="http://www.w3.org/2000/svg" xmlns:xlink="http://www.w3.org/1999/xlink" width="800" zoomAndPan="magnify" viewBox="0 0 600 74.999997" height="100" preserveAspectRatio="xMidYMid meet" version="1.0"><defs><clipPath id="08b34ed534"><path d="M 2 0 L 598 0 L 598 73.5 L 2 73.5 Z M 2 0 " clip-rule="nonzero"/></clipPath></defs><g clip-path="url(#08b34ed534)"><path fill="#d1d3d4" d="M 590.859375 43.144531 C 576.554688 43.144531 569.695312 36.050781 560.273438 26.285156 L 560.042969 26.050781 C 548.761719 14.421875 534.804688 0 507.707031 0 C 480.378906 0 466.421875 14.539062 455.140625 26.285156 C 445.71875 36.050781 438.859375 43.144531 424.554688 43.144531 C 410.25 43.144531 403.386719 36.050781 393.96875 26.285156 L 393.621094 25.933594 C 382.453125 14.421875 368.617188 0.117188 341.75 0.117188 C 314.421875 0.117188 300.464844 14.652344 289.300781 26.285156 L 289.183594 26.398438 C 279.765625 36.167969 272.902344 43.261719 258.597656 43.261719 C 244.292969 43.261719 237.433594 36.167969 228.011719 26.398438 L 227.664062 26.050781 C 216.5 14.539062 202.542969 0.117188 175.445312 0.117188 C 148.117188 0.117188 134.160156 14.652344 122.996094 26.285156 L 122.878906 26.398438 C 113.457031 36.167969 106.597656 43.261719 92.292969 43.261719 C 77.988281 43.261719 71.125 36.167969 61.707031 26.398438 L 61.472656 26.167969 C 50.191406 14.539062 36.238281 0.117188 9.140625 0.117188 L 2.164062 0.117188 L 2.164062 30.355469 L 9.140625 30.355469 C 23.445312 30.355469 30.304688 37.449219 39.726562 47.214844 L 40.074219 47.566406 C 51.238281 59.078125 65.195312 73.5 92.292969 73.5 C 119.621094 73.5 133.578125 58.960938 144.742188 47.332031 L 144.859375 47.214844 C 154.277344 37.449219 161.140625 30.355469 175.445312 30.355469 C 189.75 30.355469 196.613281 37.449219 206.03125 47.214844 L 206.265625 47.449219 C 217.546875 59.078125 231.5 73.5 258.597656 73.5 C 285.929688 73.5 299.882812 58.960938 311.046875 47.332031 L 311.164062 47.214844 C 320.585938 37.449219 327.445312 30.355469 341.75 30.355469 C 356.171875 30.355469 362.917969 37.449219 372.21875 47.214844 C 383.386719 58.847656 397.339844 73.382812 424.671875 73.382812 C 452 73.382812 465.957031 58.847656 477.121094 47.214844 L 477.238281 47.101562 C 486.65625 37.332031 493.519531 30.238281 507.824219 30.238281 C 522.128906 30.238281 528.988281 37.332031 538.410156 47.101562 L 538.640625 47.332031 C 549.921875 58.960938 563.878906 73.382812 590.859375 73.382812 L 597.835938 73.382812 L 597.835938 43.144531 Z M 590.859375 43.144531 " fill-opacity="1" fill-rule="nonzero"/></g></svg>