<svg width="1440" height="144" viewBox="0 0 1440 144" fill="none" xmlns="http://www.w3.org/2000/svg">
<g clip-path="url(#clip0_198_138109)">
<path d="M1236.32 0.5C1311.57 0.5 1355.48 7.91173 1394.16 16.561C1401.93 18.2983 1409.48 20.0863 1417.05 21.8748C1447.03 28.9671 1477.05 36.0665 1520.23 40.0408V245.312H-60.8901V14.8738C-50.351 17.1307 -40.3041 19.5054 -30.2551 21.8806C15.0109 32.5796 60.3196 43.2887 150.851 43.2887C241.355 43.2887 286.606 32.5828 331.838 21.8809L331.839 21.8807C377.032 11.1883 422.207 0.5 512.62 0.5C603.032 0.5 648.232 11.1883 693.449 21.8807L693.45 21.881C738.707 32.5828 783.982 43.2887 874.486 43.2887C964.99 43.2887 1010.26 32.5828 1055.51 21.8809C1100.72 11.1884 1145.91 0.5 1236.32 0.5Z" stroke="#3482F7"/>
<path d="M1416.7 91.4179H1417.2V91.396C1460.12 91.3773 1492.84 88.9511 1520.23 85.256V293.419H-72.5V90.5463C-59.6582 91.0995 -45.765 91.4179 -30.5387 91.4179C59.9653 91.4179 105.216 80.7119 150.449 70.0101L150.449 70.0099C195.642 59.3174 240.818 48.6292 331.23 48.6292C421.642 48.6292 466.834 59.3175 512.043 70.0099L512.044 70.0101C557.293 80.712 602.56 91.4179 693.064 91.4179C783.568 91.4179 828.843 80.712 874.096 70.0101L874.103 70.0084C919.314 59.3165 964.506 48.6292 1054.9 48.6292C1145.29 48.6292 1190.47 59.3165 1235.68 70.0085L1235.68 70.0101C1280.93 80.712 1326.2 91.4179 1416.7 91.4179Z" stroke="#3482F7"/>
<path d="M1520.23 146.91V352.774H-54.335V122.336C-43.7706 124.598 -33.7019 126.98 -23.6304 129.362C21.6044 140.061 66.8964 150.773 157.406 150.773C247.91 150.773 293.161 140.067 338.393 129.365L338.394 129.365C383.587 118.672 428.762 107.984 519.175 107.984C609.587 107.984 654.779 118.672 699.988 129.365L699.989 129.365C745.238 140.067 790.505 150.773 881.009 150.773C971.513 150.773 1016.78 140.067 1062.03 129.365C1107.24 118.673 1152.43 107.984 1242.84 107.984C1316.57 107.984 1360.23 115.096 1398.34 123.52C1406.96 125.425 1415.3 127.399 1423.64 129.374C1452.08 136.102 1480.54 142.837 1520.23 146.91Z" stroke="#3482F7"/>
</g>
<defs>
<clipPath id="clip0_198_138109">
<rect width="1480" height="144" fill="white" transform="translate(-38)"/>
</clipPath>
</defs>
</svg>
